<svg width="613" height="492" viewBox="0 0 613 492" fill="none" xmlns="http://www.w3.org/2000/svg">
<path fill-rule="evenodd" clip-rule="evenodd" d="M274 342.733L283.496 316.794C284.701 313.765 286.947 312.051 289.933 312.002V312L290 312.001L290.067 312V312.002C293.053 312.051 295.299 313.765 296.504 316.794L306 342.733L300.12 340.695L292.008 318.536C291.515 317.31 290.945 316.869 290 316.85C289.055 316.869 288.485 317.31 287.992 318.536L279.88 340.695L274 342.733ZM294.132 332.856C294.132 335.122 292.307 336.959 290.056 336.959C287.805 336.959 285.98 335.122 285.98 332.856C285.98 330.59 287.805 328.754 290.056 328.754C292.307 328.754 294.132 330.59 294.132 332.856Z" fill="#637B94"/>
<path d="M428.25 328.723C428.25 331.262 427.816 333.149 426.949 334.383C426.082 335.618 424.727 336.235 422.883 336.235C421.062 336.235 419.715 335.633 418.84 334.43C417.965 333.219 417.512 331.415 417.48 329.016V326.122C417.48 323.614 417.914 321.75 418.781 320.532C419.648 319.313 421.008 318.704 422.859 318.704C424.695 318.704 426.047 319.293 426.914 320.473C427.781 321.645 428.227 323.458 428.25 325.911V328.723ZM426.082 325.758C426.082 323.922 425.824 322.586 425.309 321.75C424.793 320.907 423.977 320.485 422.859 320.485C421.75 320.485 420.941 320.903 420.434 321.739C419.926 322.575 419.664 323.86 419.648 325.594V329.063C419.648 330.907 419.914 332.27 420.445 333.153C420.984 334.028 421.797 334.465 422.883 334.465C423.953 334.465 424.746 334.051 425.262 333.223C425.785 332.395 426.059 331.09 426.082 329.309V325.758Z" fill="#F5F9FB"/>
<path d="M431.297 334.864C431.297 334.489 431.406 334.176 431.625 333.926C431.852 333.676 432.188 333.551 432.633 333.551C433.078 333.551 433.414 333.676 433.641 333.926C433.875 334.176 433.992 334.489 433.992 334.864C433.992 335.223 433.875 335.524 433.641 335.766C433.414 336.008 433.078 336.129 432.633 336.129C432.188 336.129 431.852 336.008 431.625 335.766C431.406 335.524 431.297 335.223 431.297 334.864Z" fill="#F5F9FB"/>
<path d="M448.055 328.723C448.055 331.262 447.621 333.149 446.754 334.383C445.887 335.618 444.531 336.235 442.688 336.235C440.867 336.235 439.52 335.633 438.645 334.43C437.77 333.219 437.316 331.415 437.285 329.016V326.122C437.285 323.614 437.719 321.75 438.586 320.532C439.453 319.313 440.812 318.704 442.664 318.704C444.5 318.704 445.852 319.293 446.719 320.473C447.586 321.645 448.031 323.458 448.055 325.911V328.723ZM445.887 325.758C445.887 323.922 445.629 322.586 445.113 321.75C444.598 320.907 443.781 320.485 442.664 320.485C441.555 320.485 440.746 320.903 440.238 321.739C439.73 322.575 439.469 323.86 439.453 325.594V329.063C439.453 330.907 439.719 332.27 440.25 333.153C440.789 334.028 441.602 334.465 442.688 334.465C443.758 334.465 444.551 334.051 445.066 333.223C445.59 332.395 445.863 331.09 445.887 329.309V325.758Z" fill="#F5F9FB"/>
<path d="M462.012 336H450.832V334.442L456.738 327.879C457.613 326.887 458.215 326.083 458.543 325.465C458.879 324.84 459.047 324.196 459.047 323.532C459.047 322.641 458.777 321.911 458.238 321.34C457.699 320.77 456.98 320.485 456.082 320.485C455.004 320.485 454.164 320.793 453.562 321.411C452.969 322.02 452.672 322.872 452.672 323.965H450.504C450.504 322.395 451.008 321.125 452.016 320.157C453.031 319.188 454.387 318.704 456.082 318.704C457.668 318.704 458.922 319.122 459.844 319.958C460.766 320.786 461.227 321.891 461.227 323.274C461.227 324.954 460.156 326.954 458.016 329.274L453.445 334.231H462.012V336Z" fill="#F5F9FB"/>
<path d="M473.461 330.27H475.828V332.04H473.461V336H471.281V332.04H463.512V330.762L471.152 318.938H473.461V330.27ZM465.973 330.27H471.281V321.903L471.023 322.372L465.973 330.27Z" fill="#F5F9FB"/>
<path d="M484.91 336H482.73V321.551L478.359 323.157V321.188L484.57 318.856H484.91V336Z" fill="#F5F9FB"/>
<path d="M500.414 330.27H502.781V332.04H500.414V336H498.234V332.04H490.465V330.762L498.105 318.938H500.414V330.27ZM492.926 330.27H498.234V321.903L497.977 322.372L492.926 330.27Z" fill="#F5F9FB"/>
<path d="M513.047 328.5C512.594 329.04 512.051 329.473 511.418 329.801C510.793 330.129 510.105 330.293 509.355 330.293C508.371 330.293 507.512 330.051 506.777 329.567C506.051 329.083 505.488 328.403 505.09 327.528C504.691 326.645 504.492 325.672 504.492 324.61C504.492 323.469 504.707 322.442 505.137 321.528C505.574 320.614 506.191 319.915 506.988 319.43C507.785 318.946 508.715 318.704 509.777 318.704C511.465 318.704 512.793 319.336 513.762 320.602C514.738 321.86 515.227 323.579 515.227 325.758V326.391C515.227 329.711 514.57 332.137 513.258 333.668C511.945 335.192 509.965 335.973 507.316 336.012H506.895V334.184H507.352C509.141 334.153 510.516 333.688 511.477 332.79C512.438 331.883 512.961 330.454 513.047 328.5ZM509.707 328.5C510.434 328.5 511.102 328.278 511.711 327.833C512.328 327.387 512.777 326.836 513.059 326.18V325.313C513.059 323.891 512.75 322.735 512.133 321.844C511.516 320.954 510.734 320.508 509.789 320.508C508.836 320.508 508.07 320.875 507.492 321.61C506.914 322.336 506.625 323.297 506.625 324.493C506.625 325.657 506.902 326.618 507.457 327.375C508.02 328.125 508.77 328.5 509.707 328.5Z" fill="#F5F9FB"/>
<path d="M524.73 336V318.938H530.309C532.16 318.938 533.551 319.321 534.48 320.086C535.418 320.852 535.887 321.985 535.887 323.485C535.887 324.282 535.66 324.989 535.207 325.606C534.754 326.215 534.137 326.688 533.355 327.024C534.277 327.282 535.004 327.774 535.535 328.5C536.074 329.219 536.344 330.079 536.344 331.079C536.344 332.61 535.848 333.813 534.855 334.688C533.863 335.563 532.461 336 530.648 336H524.73ZM526.98 328.02V334.161H530.695C531.742 334.161 532.566 333.891 533.168 333.352C533.777 332.805 534.082 332.055 534.082 331.102C534.082 329.047 532.965 328.02 530.73 328.02H526.98ZM526.98 326.215H530.379C531.363 326.215 532.148 325.969 532.734 325.477C533.328 324.985 533.625 324.317 533.625 323.473C533.625 322.536 533.352 321.856 532.805 321.434C532.258 321.004 531.426 320.79 530.309 320.79H526.98V326.215Z" fill="#F5F9FB"/>
<path d="M551.145 320.79H545.66V336H543.422V320.79H537.949V318.938H551.145V320.79Z" fill="#F5F9FB"/>
<path d="M565.898 330.586C565.688 332.391 565.02 333.786 563.895 334.77C562.777 335.747 561.289 336.235 559.43 336.235C557.414 336.235 555.797 335.512 554.578 334.067C553.367 332.622 552.762 330.688 552.762 328.266V326.625C552.762 325.04 553.043 323.645 553.605 322.442C554.176 321.239 554.98 320.317 556.02 319.676C557.059 319.028 558.262 318.704 559.629 318.704C561.441 318.704 562.895 319.211 563.988 320.227C565.082 321.235 565.719 322.633 565.898 324.422H563.637C563.441 323.063 563.016 322.079 562.359 321.469C561.711 320.86 560.801 320.555 559.629 320.555C558.191 320.555 557.062 321.086 556.242 322.149C555.43 323.211 555.023 324.723 555.023 326.684V328.336C555.023 330.188 555.41 331.661 556.184 332.754C556.957 333.848 558.039 334.395 559.43 334.395C560.68 334.395 561.637 334.114 562.301 333.551C562.973 332.981 563.418 331.993 563.637 330.586H565.898Z" fill="#F5F9FB"/>
<path d="M485.494 106.494C485.494 69.0775 451.663 33.9999 413 33.9999" stroke="#B1BDCD" stroke-width="2"/>
<path d="M493 104.86L478.501 104.86L485.751 119.359L493 104.86Z" fill="#B1BDCD"/>
<rect x="223" y="133.367" width="350" height="230" rx="16" fill="#113355"/>
<g opacity="0.7">
<mask id="mask0" mask-type="alpha" maskUnits="userSpaceOnUse" x="223" y="133" width="350" height="231">
<rect x="223" y="133.367" width="350" height="230" rx="16" fill="url(#paint0_linear)"/>
</mask>
<g mask="url(#mask0)">
<path opacity="0.32" fill-rule="evenodd" clip-rule="evenodd" d="M347.365 363.987L480.099 3.50735C496.942 -38.579 528.343 -62.4028 570.087 -63.0915V-63.1069L571.02 -63.1031L571.955 -63.1069V-63.0915C613.698 -62.4028 645.099 -38.579 661.942 3.50735L794.676 363.987L712.482 335.651L599.095 27.7151C592.194 10.6839 584.225 4.55186 571.02 4.28183C557.815 4.55186 549.847 10.6839 542.947 27.7151L429.559 335.651L347.365 363.987ZM628.776 226.724C628.776 258.211 603.268 283.738 571.8 283.738C540.334 283.738 514.826 258.211 514.826 226.724C514.826 195.236 540.334 169.711 571.8 169.711C603.268 169.711 628.776 195.236 628.776 226.724Z" fill="white"/>
</g>
</g>
<path fill-rule="evenodd" clip-rule="evenodd" d="M272.367 144.991C272.367 144.61 272.314 144.242 272.215 143.893C272.782 141.934 273.565 140.032 274.478 138.404C275.669 136.282 276.917 134.916 277.934 134.316L276.865 132.504H283.978L282.909 134.316C284.386 135.188 285.897 136.889 287.116 139.43L292.526 136.836C291.768 135.255 290.857 133.786 289.8 132.504H292.944C298.35 132.504 302.92 136.078 304.422 140.991H292.483C290.273 140.991 288.483 142.782 288.483 144.991V155.436C288.483 156.234 288.716 156.977 289.119 157.601C287.895 162.258 285.306 165.651 282.909 167.066L283.978 168.878H276.865L277.934 167.066C275.538 165.652 272.954 162.26 271.731 157.601C272.134 156.977 272.367 156.233 272.367 155.436V144.991ZM294.837 159.436C293.822 163.112 292.083 166.386 289.911 168.878H292.944C298.694 168.878 303.499 164.834 304.671 159.436H294.837ZM304.944 153.436V146.991H294.483V153.436H304.944ZM255.217 159.436H266.013C267.027 163.111 268.763 166.385 270.934 168.878H266.944C261.195 168.878 256.389 164.834 255.217 159.436ZM266.367 153.436H254.944V146.991H266.367V153.436ZM255.467 140.991H266.834C267.477 139.048 268.295 137.163 269.246 135.469C269.824 134.439 270.478 133.43 271.207 132.504H266.944C261.539 132.504 256.969 136.078 255.467 140.991Z" fill="#FDF4EB"/>
<path d="M396.25 316.725C396.25 319.264 395.816 321.15 394.949 322.385C394.082 323.619 392.727 324.236 390.883 324.236C389.062 324.236 387.715 323.635 386.84 322.432C385.965 321.221 385.512 319.416 385.48 317.018V314.123C385.48 311.615 385.914 309.752 386.781 308.533C387.648 307.314 389.008 306.705 390.859 306.705C392.695 306.705 394.047 307.295 394.914 308.475C395.781 309.646 396.227 311.459 396.25 313.912V316.725ZM394.082 313.76C394.082 311.924 393.824 310.588 393.309 309.752C392.793 308.908 391.977 308.486 390.859 308.486C389.75 308.486 388.941 308.904 388.434 309.74C387.926 310.576 387.664 311.861 387.648 313.596V317.064C387.648 318.908 387.914 320.271 388.445 321.154C388.984 322.029 389.797 322.467 390.883 322.467C391.953 322.467 392.746 322.053 393.262 321.225C393.785 320.396 394.059 319.092 394.082 317.311V313.76Z" fill="#F5F9FB"/>
<path d="M399.297 322.865C399.297 322.49 399.406 322.178 399.625 321.928C399.852 321.678 400.188 321.553 400.633 321.553C401.078 321.553 401.414 321.678 401.641 321.928C401.875 322.178 401.992 322.49 401.992 322.865C401.992 323.225 401.875 323.525 401.641 323.768C401.414 324.01 401.078 324.131 400.633 324.131C400.188 324.131 399.852 324.01 399.625 323.768C399.406 323.525 399.297 323.225 399.297 322.865Z" fill="#F5F9FB"/>
<path d="M416.055 316.725C416.055 319.264 415.621 321.15 414.754 322.385C413.887 323.619 412.531 324.236 410.688 324.236C408.867 324.236 407.52 323.635 406.645 322.432C405.77 321.221 405.316 319.416 405.285 317.018V314.123C405.285 311.615 405.719 309.752 406.586 308.533C407.453 307.314 408.812 306.705 410.664 306.705C412.5 306.705 413.852 307.295 414.719 308.475C415.586 309.646 416.031 311.459 416.055 313.912V316.725ZM413.887 313.76C413.887 311.924 413.629 310.588 413.113 309.752C412.598 308.908 411.781 308.486 410.664 308.486C409.555 308.486 408.746 308.904 408.238 309.74C407.73 310.576 407.469 311.861 407.453 313.596V317.064C407.453 318.908 407.719 320.271 408.25 321.154C408.789 322.029 409.602 322.467 410.688 322.467C411.758 322.467 412.551 322.053 413.066 321.225C413.59 320.396 413.863 319.092 413.887 317.311V313.76Z" fill="#F5F9FB"/>
<path d="M430.012 324.002H418.832V322.443L424.738 315.881C425.613 314.889 426.215 314.084 426.543 313.467C426.879 312.842 427.047 312.197 427.047 311.533C427.047 310.643 426.777 309.912 426.238 309.342C425.699 308.771 424.98 308.486 424.082 308.486C423.004 308.486 422.164 308.795 421.562 309.412C420.969 310.021 420.672 310.873 420.672 311.967H418.504C418.504 310.396 419.008 309.127 420.016 308.158C421.031 307.189 422.387 306.705 424.082 306.705C425.668 306.705 426.922 307.123 427.844 307.959C428.766 308.787 429.227 309.893 429.227 311.275C429.227 312.955 428.156 314.955 426.016 317.275L421.445 322.232H430.012V324.002Z" fill="#F5F9FB"/>
<path d="M441.461 318.271H443.828V320.041H441.461V324.002H439.281V320.041H431.512V318.764L439.152 306.939H441.461V318.271ZM433.973 318.271H439.281V309.904L439.023 310.373L433.973 318.271Z" fill="#F5F9FB"/>
<path d="M452.91 324.002H450.73V309.553L446.359 311.158V309.189L452.57 306.857H452.91V324.002Z" fill="#F5F9FB"/>
<path d="M468.414 318.271H470.781V320.041H468.414V324.002H466.234V320.041H458.465V318.764L466.105 306.939H468.414V318.271ZM460.926 318.271H466.234V309.904L465.977 310.373L460.926 318.271Z" fill="#F5F9FB"/>
<path d="M481.047 316.502C480.594 317.041 480.051 317.475 479.418 317.803C478.793 318.131 478.105 318.295 477.355 318.295C476.371 318.295 475.512 318.053 474.777 317.568C474.051 317.084 473.488 316.404 473.09 315.529C472.691 314.646 472.492 313.674 472.492 312.611C472.492 311.471 472.707 310.443 473.137 309.529C473.574 308.615 474.191 307.916 474.988 307.432C475.785 306.947 476.715 306.705 477.777 306.705C479.465 306.705 480.793 307.338 481.762 308.604C482.738 309.861 483.227 311.58 483.227 313.76V314.393C483.227 317.713 482.57 320.139 481.258 321.67C479.945 323.193 477.965 323.975 475.316 324.014H474.895V322.186H475.352C477.141 322.154 478.516 321.689 479.477 320.791C480.438 319.885 480.961 318.455 481.047 316.502ZM477.707 316.502C478.434 316.502 479.102 316.279 479.711 315.834C480.328 315.389 480.777 314.838 481.059 314.182V313.314C481.059 311.893 480.75 310.736 480.133 309.846C479.516 308.955 478.734 308.51 477.789 308.51C476.836 308.51 476.07 308.877 475.492 309.611C474.914 310.338 474.625 311.299 474.625 312.494C474.625 313.658 474.902 314.619 475.457 315.377C476.02 316.127 476.77 316.502 477.707 316.502Z" fill="#F5F9FB"/>
<path d="M492.73 324.002V306.939H498.309C500.16 306.939 501.551 307.322 502.48 308.088C503.418 308.854 503.887 309.986 503.887 311.486C503.887 312.283 503.66 312.99 503.207 313.607C502.754 314.217 502.137 314.689 501.355 315.025C502.277 315.283 503.004 315.775 503.535 316.502C504.074 317.221 504.344 318.08 504.344 319.08C504.344 320.611 503.848 321.814 502.855 322.689C501.863 323.564 500.461 324.002 498.648 324.002H492.73ZM494.98 316.021V322.162H498.695C499.742 322.162 500.566 321.893 501.168 321.354C501.777 320.807 502.082 320.057 502.082 319.104C502.082 317.049 500.965 316.021 498.73 316.021H494.98ZM494.98 314.217H498.379C499.363 314.217 500.148 313.971 500.734 313.479C501.328 312.986 501.625 312.318 501.625 311.475C501.625 310.537 501.352 309.857 500.805 309.436C500.258 309.006 499.426 308.791 498.309 308.791H494.98V314.217Z" fill="#F5F9FB"/>
<path d="M519.145 308.791H513.66V324.002H511.422V308.791H505.949V306.939H519.145V308.791Z" fill="#F5F9FB"/>
<path d="M533.898 318.588C533.688 320.393 533.02 321.787 531.895 322.771C530.777 323.748 529.289 324.236 527.43 324.236C525.414 324.236 523.797 323.514 522.578 322.068C521.367 320.623 520.762 318.689 520.762 316.268V314.627C520.762 313.041 521.043 311.646 521.605 310.443C522.176 309.24 522.98 308.318 524.02 307.678C525.059 307.029 526.262 306.705 527.629 306.705C529.441 306.705 530.895 307.213 531.988 308.229C533.082 309.236 533.719 310.635 533.898 312.424H531.637C531.441 311.064 531.016 310.08 530.359 309.471C529.711 308.861 528.801 308.557 527.629 308.557C526.191 308.557 525.062 309.088 524.242 310.15C523.43 311.213 523.023 312.725 523.023 314.686V316.338C523.023 318.189 523.41 319.662 524.184 320.756C524.957 321.85 526.039 322.396 527.43 322.396C528.68 322.396 529.637 322.115 530.301 321.553C530.973 320.982 531.418 319.994 531.637 318.588H533.898Z" fill="#F5F9FB"/>
<path fill-rule="evenodd" clip-rule="evenodd" d="M501 166.002C478.909 166.002 461 183.91 461 206.002C461 228.093 478.909 246.002 501 246.002C523.092 246.002 541 228.093 541 206.002C541 183.91 523.092 166.002 501 166.002Z" fill="#FDA13F"/>
<path fill-rule="evenodd" clip-rule="evenodd" d="M514.485 207.921C517.258 207.282 519.346 205.458 519.903 201.691C520.673 196.545 516.755 193.778 511.397 191.933L513.135 184.962L508.892 183.904L507.2 190.692C506.084 190.414 504.939 190.152 503.8 189.891L505.504 183.06L501.263 182.002L499.524 188.971C498.601 188.76 497.694 188.553 496.814 188.334L496.819 188.312L490.967 186.851L489.838 191.383C489.838 191.383 492.987 192.105 492.92 192.149C494.639 192.578 494.95 193.716 494.897 194.617L492.918 202.559C493.036 202.589 493.19 202.633 493.359 202.7C493.315 202.689 493.27 202.678 493.225 202.667C493.123 202.641 493.018 202.615 492.911 202.589L490.135 213.714C489.925 214.236 489.392 215.019 488.191 214.722C488.233 214.784 485.107 213.952 485.107 213.952L483 218.81L488.522 220.186C489.138 220.341 489.747 220.499 490.349 220.656C490.751 220.761 491.15 220.865 491.547 220.967L489.791 228.018L494.03 229.076L495.769 222.099C496.927 222.414 498.051 222.704 499.151 222.977L497.417 229.92L501.661 230.978L503.417 223.94C510.653 225.309 516.094 224.757 518.384 218.213C520.23 212.943 518.292 209.904 514.485 207.921ZM502.655 194.904L500.542 203.376C500.742 203.426 500.976 203.488 501.238 203.558L501.238 203.559C504.125 204.329 510.422 206.009 511.518 201.615C512.638 197.121 506.518 195.766 503.529 195.104C503.193 195.03 502.897 194.964 502.655 194.904ZM499.478 207.653L497.148 216.994C497.385 217.053 497.663 217.127 497.974 217.209C501.436 218.124 509.004 220.123 510.207 215.288C511.44 210.345 504.102 208.698 500.52 207.895C500.12 207.805 499.767 207.725 499.478 207.653Z" fill="white"/>
<rect x="31" y="5.00195" width="350" height="230" rx="16" fill="#2FA6FA"/>
<g opacity="0.7">
<mask id="mask1" mask-type="alpha" maskUnits="userSpaceOnUse" x="31" y="5" width="350" height="231">
<rect x="31" y="5.00195" width="350" height="230" rx="16" fill="url(#paint1_linear)"/>
</mask>
<g mask="url(#mask1)">
<path opacity="0.32" fill-rule="evenodd" clip-rule="evenodd" d="M75.0151 235.566L207.749 -124.914C224.592 -167 255.993 -190.824 297.736 -191.513V-191.528L298.67 -191.524L299.605 -191.528V-191.513C341.348 -190.824 372.749 -167 389.592 -124.914L522.326 235.566L440.132 207.231L326.744 -100.706C319.844 -117.737 311.874 -123.869 298.67 -124.139C285.465 -123.869 277.497 -117.737 270.596 -100.706L157.209 207.231L75.0151 235.566ZM356.425 98.3031C356.425 129.79 330.918 155.317 299.449 155.317C267.984 155.317 242.475 129.79 242.475 98.3031C242.475 66.8149 267.984 41.2896 299.449 41.2896C330.918 41.2896 356.425 66.8149 356.425 98.3031Z" fill="white"/>
</g>
</g>
<path d="M253.631 151.323C253.739 151.416 253.855 151.508 253.967 151.6C251.764 153.059 249.121 153.912 246.278 153.912C238.608 153.912 232.389 147.721 232.389 140.086C232.389 132.45 238.608 126.259 246.278 126.259C249.121 126.259 251.764 127.112 253.967 128.571C253.855 128.664 253.739 128.752 253.631 128.848C250.36 131.682 248.481 135.776 248.481 140.086C248.481 144.395 250.36 148.489 253.631 151.323Z" fill="white"/>
<path d="M263.446 126.259C260.603 126.259 257.96 127.111 255.757 128.571C255.869 128.663 255.985 128.751 256.093 128.847C259.365 131.682 261.24 135.776 261.24 140.085C261.24 144.395 259.365 148.489 256.093 151.323C255.985 151.416 255.869 151.508 255.757 151.6C257.96 153.059 260.603 153.912 263.446 153.912C271.116 153.912 277.335 147.721 277.335 140.085C277.335 132.45 271.116 126.259 263.446 126.259Z" fill="white"/>
<path d="M254.862 129.22C254.684 129.362 254.507 129.504 254.337 129.654C251.409 132.189 249.557 135.922 249.557 140.085C249.557 144.249 251.409 147.982 254.337 150.517C254.507 150.667 254.684 150.809 254.862 150.951C255.039 150.809 255.216 150.667 255.386 150.517C258.314 147.982 260.166 144.249 260.166 140.085C260.166 135.922 258.314 132.189 255.386 129.654C255.216 129.504 255.039 129.362 254.862 129.22Z" fill="white"/>
<path d="M323.755 150.83H318.193L321.672 129.415H327.234L323.755 150.83Z" fill="white"/>
<path d="M343.921 129.938C342.823 129.505 341.083 129.026 338.932 129.026C333.439 129.026 329.571 131.942 329.547 136.111C329.501 139.187 332.316 140.896 334.422 141.921C336.574 142.969 337.305 143.653 337.305 144.587C337.283 146.022 335.566 146.683 333.965 146.683C331.744 146.683 330.554 146.342 328.746 145.544L328.014 145.202L327.235 150.009C328.54 150.601 330.943 151.126 333.439 151.149C339.275 151.149 343.075 148.278 343.12 143.835C343.142 141.398 341.655 139.53 338.451 138.003C336.505 137.023 335.314 136.363 335.314 135.36C335.337 134.449 336.322 133.515 338.518 133.515C340.326 133.469 341.655 133.902 342.661 134.335L343.164 134.562L343.921 129.938Z" fill="white"/>
<path d="M351.312 143.243C351.77 142.013 353.533 137.251 353.533 137.251C353.51 137.297 353.99 135.998 354.265 135.201L354.653 137.046C354.653 137.046 355.707 142.172 355.935 143.243C355.066 143.243 352.411 143.243 351.312 143.243ZM358.178 129.415H353.875C352.549 129.415 351.541 129.802 350.968 131.191L342.706 150.83H348.543C348.543 150.83 349.503 148.186 349.71 147.617C350.35 147.617 356.028 147.617 356.851 147.617C357.011 148.369 357.515 150.83 357.515 150.83H362.665L358.178 129.415Z" fill="white"/>
<path d="M313.548 129.415L308.1 144.018L307.505 141.056C306.498 137.639 303.339 133.926 299.815 132.08L304.804 150.808H310.686L319.429 129.415H313.548Z" fill="white"/>
<path d="M303.042 129.415H294.093L294.002 129.848C300.983 131.625 305.606 135.908 307.505 141.057L305.56 131.215C305.24 129.847 304.255 129.46 303.042 129.415Z" fill="white"/>
<path d="M65.3301 74.6778H70.4111V69.3206H63.7758V59.6074H71.5083C71.8043 59.6074 72.0612 59.7158 72.2789 59.9325C72.4966 60.1492 72.6054 60.4049 72.6054 60.6997C72.6054 61.0031 72.4966 61.2631 72.2789 61.4798C72.0699 61.6879 71.813 61.7919 71.5083 61.7919H65.9963V67.1361H70.4111C71.0032 67.1361 71.517 67.3528 71.9524 67.7863C72.3877 68.2197 72.6054 68.7311 72.6054 69.3206V74.6778C72.6054 75.2759 72.3877 75.7917 71.9524 76.2252C71.5257 76.6499 71.0119 76.8623 70.4111 76.8623H65.3301C64.8773 76.8623 64.394 76.7539 63.8803 76.5372L62.2214 75.8481C61.7773 75.666 61.5553 75.3193 61.5553 74.8078C61.5553 74.5044 61.6554 74.2487 61.8557 74.0407C62.056 73.824 62.2998 73.7156 62.5872 73.7156C62.8049 73.7156 63.0574 73.7806 63.3447 73.9106L64.7946 74.5218C64.9687 74.6258 65.1472 74.6778 65.3301 74.6778Z" fill="white"/>
<path d="M87.4434 76.8623H77.4644V69.3206C77.4644 68.7138 77.6777 68.1937 78.1044 67.7603C78.5398 67.3268 79.0579 67.1101 79.6587 67.1101H86.3201V61.7919H78.4832C78.1697 61.7919 77.9085 61.6879 77.6995 61.4798C77.4905 61.2631 77.386 61.0031 77.386 60.6997C77.386 60.3963 77.4905 60.1405 77.6995 59.9325C77.9085 59.7158 78.1697 59.6074 78.4832 59.6074H86.3201C86.9297 59.6074 87.4521 59.8241 87.8875 60.2576C88.3229 60.6823 88.5406 61.1938 88.5406 61.7919V67.1101C88.5406 67.7256 88.3229 68.25 87.8875 68.6835C87.4521 69.1082 86.9297 69.3206 86.3201 69.3206H79.6587V74.6778H87.4434C87.7395 74.6778 87.9964 74.7862 88.2141 75.0029C88.4318 75.2109 88.5406 75.4667 88.5406 75.7701C88.5406 76.0735 88.4318 76.3335 88.2141 76.5502C87.9964 76.7583 87.7395 76.8623 87.4434 76.8623Z" fill="white"/>
<path d="M94.6796 74.6778H98.0495V61.7919H94.7318C94.4271 61.7919 94.1658 61.6879 93.9481 61.4798C93.7391 61.2631 93.6346 61.0031 93.6346 60.6997C93.6346 60.3963 93.7391 60.1405 93.9481 59.9325C94.1658 59.7158 94.4271 59.6074 94.7318 59.6074H100.244V74.6778H102.438V70.1268C102.438 69.8321 102.543 69.5763 102.752 69.3596C102.969 69.1429 103.231 69.0345 103.535 69.0345C103.84 69.0345 104.097 69.1429 104.306 69.3596C104.524 69.5677 104.633 69.8234 104.633 70.1268V75.7701C104.633 76.0735 104.524 76.3335 104.306 76.5502C104.097 76.7583 103.84 76.8623 103.535 76.8623H94.6796C94.3748 76.8623 94.1136 76.7539 93.8959 76.5372C93.6869 76.3118 93.5824 76.0475 93.5824 75.7441C93.5824 75.4493 93.6869 75.1979 93.8959 74.9899C94.1136 74.7818 94.3748 74.6778 94.6796 74.6778Z" fill="white"/>
<path d="M120.881 61.7919V65.8878C120.881 66.8414 120.585 67.6129 119.993 68.2024C120.603 68.8785 120.907 69.6153 120.907 70.4129V74.6778C120.907 75.2759 120.69 75.7917 120.254 76.2252C119.819 76.6499 119.296 76.8623 118.687 76.8623H110.928C110.623 76.8623 110.362 76.7583 110.145 76.5502C109.936 76.3335 109.831 76.0735 109.831 75.7701C109.831 75.4667 109.936 75.2109 110.145 75.0029C110.362 74.7862 110.623 74.6778 110.928 74.6778H118.661V70.4129C118.661 70.1095 118.552 69.8494 118.334 69.6327C118.125 69.4073 117.868 69.2946 117.564 69.2946H113.149C112.844 69.2946 112.583 69.1906 112.365 68.9825C112.156 68.7745 112.052 68.5144 112.052 68.2024C112.052 67.899 112.156 67.6432 112.365 67.4352C112.583 67.2185 112.844 67.1101 113.149 67.1101H117.59C117.886 67.1101 118.143 67.0061 118.36 66.798C118.578 66.5813 118.687 66.3213 118.687 66.0179V61.7919H110.85C110.545 61.7919 110.284 61.6879 110.066 61.4798C109.857 61.2631 109.753 61.0031 109.753 60.6997C109.753 60.3963 109.857 60.1405 110.066 59.9325C110.284 59.7158 110.545 59.6074 110.85 59.6074H118.687C119.296 59.6074 119.814 59.8241 120.241 60.2576C120.668 60.6823 120.881 61.1938 120.881 61.7919Z" fill="white"/>
<path d="M148.798 76.876H138.819V69.3341C138.819 68.7273 139.032 68.2072 139.459 67.7737C139.894 67.3403 140.412 67.1236 141.013 67.1236H147.675V61.8053H139.838C139.524 61.8053 139.263 61.7012 139.054 61.4932C138.845 61.2765 138.74 61.0164 138.74 60.713C138.74 60.4096 138.845 60.1539 139.054 59.9458C139.263 59.7291 139.524 59.6207 139.838 59.6207H147.675C148.284 59.6207 148.807 59.8375 149.242 60.2709C149.677 60.6957 149.895 61.2071 149.895 61.8053V67.1236C149.895 67.7391 149.677 68.2635 149.242 68.697C148.807 69.1217 148.284 69.3341 147.675 69.3341H141.013V74.6914H148.798C149.094 74.6914 149.351 74.7998 149.568 75.0165C149.786 75.2246 149.895 75.4803 149.895 75.7837C149.895 76.0871 149.786 76.3472 149.568 76.5639C149.351 76.7719 149.094 76.876 148.798 76.876Z" fill="white"/>
<path d="M162.186 75.7837V71.2326H155.577V60.713C155.577 60.4096 155.686 60.1495 155.903 59.9328C156.13 59.7074 156.395 59.5947 156.7 59.5947C156.996 59.5947 157.253 59.7074 157.471 59.9328C157.688 60.1495 157.797 60.4096 157.797 60.713V69.022H162.186V62.6245C162.186 62.3211 162.29 62.061 162.499 61.8443C162.717 61.6189 162.978 61.5062 163.283 61.5062C163.588 61.5062 163.845 61.6189 164.054 61.8443C164.271 62.061 164.38 62.3211 164.38 62.6245V69.022C164.685 69.022 164.942 69.1304 165.151 69.3471C165.369 69.5552 165.478 69.8109 165.478 70.1143C165.478 70.4177 165.369 70.6778 165.151 70.8945C164.942 71.1026 164.685 71.2066 164.38 71.2066V75.7837C164.38 76.0871 164.271 76.3472 164.054 76.5639C163.836 76.7719 163.579 76.876 163.283 76.876C162.978 76.876 162.717 76.7719 162.499 76.5639C162.29 76.3472 162.186 76.0871 162.186 75.7837Z" fill="white"/>
<path d="M171.133 74.7695V61.7012C171.133 61.1291 171.342 60.635 171.76 60.2189C172.178 59.8028 172.674 59.5947 173.249 59.5947H180.093C180.659 59.5947 181.147 59.8028 181.556 60.2189C181.974 60.635 182.183 61.1291 182.183 61.7012V74.7695C182.183 75.3503 181.974 75.8487 181.556 76.2648C181.147 76.6723 180.651 76.876 180.067 76.876H173.249C172.657 76.876 172.156 76.6723 171.747 76.2648C171.338 75.8487 171.133 75.3503 171.133 74.7695ZM180.015 74.6914V61.8053H173.328V74.6914H180.015Z" fill="white"/>
<path d="M187.304 74.7695V61.7012C187.304 61.1291 187.512 60.635 187.93 60.2189C188.348 59.8028 188.845 59.5947 189.419 59.5947H196.264C196.83 59.5947 197.317 59.8028 197.727 60.2189C198.145 60.635 198.354 61.1291 198.354 61.7012V74.7695C198.354 75.3503 198.145 75.8487 197.727 76.2648C197.317 76.6723 196.821 76.876 196.238 76.876H189.419C188.827 76.876 188.327 76.6723 187.917 76.2648C187.508 75.8487 187.304 75.3503 187.304 74.7695ZM196.185 74.6914V61.8053H189.498V74.6914H196.185Z" fill="white"/>
<path d="M216.188 74.7695V61.7012C216.188 61.1291 216.397 60.635 216.815 60.2189C217.233 59.8028 217.73 59.5947 218.304 59.5947H225.149C225.715 59.5947 226.202 59.8028 226.612 60.2189C227.03 60.635 227.239 61.1291 227.239 61.7012V74.7695C227.239 75.3503 227.03 75.8487 226.612 76.2648C226.202 76.6723 225.706 76.876 225.123 76.876H218.304C217.712 76.876 217.212 76.6723 216.802 76.2648C216.393 75.8487 216.188 75.3503 216.188 74.7695ZM225.07 74.6914V61.8053H218.383V74.6914H225.07Z" fill="white"/>
<path d="M232.359 74.7695V61.7012C232.359 61.1291 232.568 60.635 232.986 60.2189C233.404 59.8028 233.9 59.5947 234.475 59.5947H241.319C241.885 59.5947 242.373 59.8028 242.782 60.2189C243.2 60.635 243.409 61.1291 243.409 61.7012V74.7695C243.409 75.3503 243.2 75.8487 242.782 76.2648C242.373 76.6723 241.876 76.876 241.293 76.876H234.475C233.883 76.876 233.382 76.6723 232.973 76.2648C232.563 75.8487 232.359 75.3503 232.359 74.7695ZM241.241 74.6914V61.8053H234.553V74.6914H241.241Z" fill="white"/>
<path d="M248.529 74.7695V61.7012C248.529 61.1291 248.738 60.635 249.156 60.2189C249.574 59.8028 250.07 59.5947 250.645 59.5947H257.489C258.055 59.5947 258.543 59.8028 258.952 60.2189C259.37 60.635 259.579 61.1291 259.579 61.7012V74.7695C259.579 75.3503 259.37 75.8487 258.952 76.2648C258.543 76.6723 258.047 76.876 257.463 76.876H250.645C250.053 76.876 249.552 76.6723 249.143 76.2648C248.734 75.8487 248.529 75.3503 248.529 74.7695ZM257.411 74.6914V61.8053H250.723V74.6914H257.411Z" fill="white"/>
<path d="M264.699 74.7695V61.7012C264.699 61.1291 264.908 60.635 265.326 60.2189C265.744 59.8028 266.241 59.5947 266.815 59.5947H273.66C274.226 59.5947 274.713 59.8028 275.122 60.2189C275.54 60.635 275.749 61.1291 275.749 61.7012V74.7695C275.749 75.3503 275.54 75.8487 275.122 76.2648C274.713 76.6723 274.217 76.876 273.633 76.876H266.815C266.223 76.876 265.722 76.6723 265.313 76.2648C264.904 75.8487 264.699 75.3503 264.699 74.7695ZM273.581 74.6914V61.8053H266.894V74.6914H273.581Z" fill="white"/>
<path d="M293.582 74.7695V61.7012C293.582 61.1291 293.791 60.635 294.209 60.2189C294.627 59.8028 295.124 59.5947 295.698 59.5947H302.543C303.109 59.5947 303.596 59.8028 304.005 60.2189C304.423 60.635 304.632 61.1291 304.632 61.7012V74.7695C304.632 75.3503 304.423 75.8487 304.005 76.2648C303.596 76.6723 303.1 76.876 302.516 76.876H295.698C295.106 76.876 294.605 76.6723 294.196 76.2648C293.787 75.8487 293.582 75.3503 293.582 74.7695ZM302.464 74.6914V61.8053H295.777V74.6914H302.464Z" fill="white"/>
<path d="M310.824 74.6914H314.194V61.8053H310.876C310.571 61.8053 310.31 61.7012 310.092 61.4932C309.883 61.2765 309.779 61.0164 309.779 60.713C309.779 60.4096 309.883 60.1539 310.092 59.9458C310.31 59.7291 310.571 59.6207 310.876 59.6207H316.388V74.6914H318.582V70.1403C318.582 69.8456 318.687 69.5899 318.896 69.3731C319.113 69.1564 319.375 69.0481 319.679 69.0481C319.984 69.0481 320.241 69.1564 320.45 69.3731C320.668 69.5812 320.777 69.8369 320.777 70.1403V75.7837C320.777 76.0871 320.668 76.3472 320.45 76.5639C320.241 76.7719 319.984 76.876 319.679 76.876H310.824C310.519 76.876 310.258 76.7676 310.04 76.5509C309.831 76.3255 309.726 76.0611 309.726 75.7577C309.726 75.463 309.831 75.2116 310.04 75.0035C310.258 74.7955 310.519 74.6914 310.824 74.6914Z" fill="white"/>
<path d="M335.928 76.876H325.949V69.3341C325.949 68.7273 326.162 68.2072 326.589 67.7737C327.024 67.3403 327.542 67.1236 328.143 67.1236H334.805V61.8053H326.968C326.654 61.8053 326.393 61.7012 326.184 61.4932C325.975 61.2765 325.871 61.0164 325.871 60.713C325.871 60.4096 325.975 60.1539 326.184 59.9458C326.393 59.7291 326.654 59.6207 326.968 59.6207H334.805C335.414 59.6207 335.937 59.8375 336.372 60.2709C336.808 60.6957 337.025 61.2071 337.025 61.8053V67.1236C337.025 67.7391 336.808 68.2635 336.372 68.697C335.937 69.1217 335.414 69.3341 334.805 69.3341H328.143V74.6914H335.928C336.224 74.6914 336.481 74.7998 336.699 75.0165C336.916 75.2246 337.025 75.4803 337.025 75.7837C337.025 76.0871 336.916 76.3472 336.699 76.5639C336.481 76.7719 336.224 76.876 335.928 76.876Z" fill="white"/>
<path d="M353.195 61.8053V65.9013C353.195 66.8548 352.899 67.6264 352.307 68.2158C352.917 68.892 353.222 69.6289 353.222 70.4264V74.6914C353.222 75.2896 353.004 75.8054 352.569 76.2388C352.133 76.6636 351.611 76.876 351.001 76.876H343.243C342.938 76.876 342.677 76.7719 342.459 76.5639C342.25 76.3472 342.145 76.0871 342.145 75.7837C342.145 75.4803 342.25 75.2246 342.459 75.0165C342.677 74.7998 342.938 74.6914 343.243 74.6914H350.975V70.4264C350.975 70.123 350.866 69.8629 350.648 69.6462C350.439 69.4208 350.183 69.3081 349.878 69.3081H345.463C345.158 69.3081 344.897 69.2041 344.679 68.996C344.47 68.788 344.366 68.5279 344.366 68.2158C344.366 67.9124 344.47 67.6567 344.679 67.4487C344.897 67.2319 345.158 67.1236 345.463 67.1236H349.904C350.2 67.1236 350.457 67.0196 350.675 66.8115C350.892 66.5948 351.001 66.3347 351.001 66.0313V61.8053H343.164C342.859 61.8053 342.598 61.7012 342.38 61.4932C342.171 61.2765 342.067 61.0164 342.067 60.713C342.067 60.4096 342.171 60.1539 342.38 59.9458C342.598 59.7291 342.859 59.6207 343.164 59.6207H351.001C351.611 59.6207 352.129 59.8375 352.555 60.2709C352.982 60.6957 353.195 61.2071 353.195 61.8053Z" fill="white"/>
<path d="M65.6367 142.176H68.6003C68.962 142.176 69.3033 142.329 69.6243 142.635C69.9498 142.937 70.1126 143.304 70.1126 143.736C70.1126 143.898 70.0538 144.035 69.9363 144.148C69.8232 144.26 69.6966 144.316 69.5565 144.316C69.3621 144.316 69.2287 144.274 69.1564 144.188C69.084 144.098 69.014 143.934 68.9461 143.695C68.8828 143.457 68.7382 143.337 68.5121 143.337H65.6977C65.5621 143.337 65.4943 143.38 65.4943 143.466C65.4943 143.52 65.5236 143.583 65.5824 143.655L69.8074 149.035C70.0109 149.296 70.1126 149.575 70.1126 149.872C70.1126 150.21 69.9883 150.507 69.7396 150.764C69.4955 151.02 69.2219 151.148 68.919 151.148H65.8469C65.44 151.148 65.0851 150.995 64.7822 150.689C64.4838 150.379 64.3346 150.039 64.3346 149.67C64.3346 149.247 64.5335 149.035 64.9314 149.035C65.0851 149.035 65.2162 149.092 65.3247 149.204C65.4332 149.312 65.4875 149.44 65.4875 149.589C65.4875 149.71 65.5282 149.812 65.6096 149.893C65.6955 149.974 65.8017 150.014 65.9283 150.014H68.763C68.8851 150.014 68.9461 149.967 68.9461 149.872C68.9461 149.827 68.9168 149.769 68.858 149.697L64.6398 144.316C64.4408 144.06 64.3414 143.781 64.3414 143.479C64.3414 143.128 64.468 142.824 64.7212 142.568C64.9743 142.307 65.2795 142.176 65.6367 142.176Z" fill="white"/>
<path d="M72.7778 150.359L75.0836 142.602C75.174 142.318 75.3639 142.176 75.6532 142.176C75.9335 142.176 76.1099 142.295 76.1822 142.534L78.4541 150.413C78.4721 150.471 78.4812 150.527 78.4812 150.581C78.4812 150.739 78.4269 150.874 78.3184 150.986C78.2099 151.094 78.0856 151.148 77.9454 151.148C77.647 151.148 77.4571 151.011 77.3758 150.737L76.9146 149.197H74.3172L73.8154 150.845C73.8018 150.917 73.7453 150.986 73.6458 151.054C73.5464 151.117 73.4379 151.148 73.3203 151.148C73.153 151.148 73.0151 151.092 72.9066 150.98C72.7981 150.867 72.7439 150.73 72.7439 150.568C72.7439 150.5 72.7552 150.431 72.7778 150.359ZM75.6397 144.802L74.6631 148.05H76.5823L75.6397 144.802Z" fill="white"/>
<path d="M81.126 143.722V142.19H86.8769V143.736C86.8769 143.893 86.8204 144.028 86.7074 144.141C86.5943 144.249 86.461 144.303 86.3072 144.303C86.149 144.303 86.0111 144.247 85.8936 144.134C85.7805 144.021 85.724 143.889 85.724 143.736V143.324H84.5711V150.581C84.5711 150.739 84.5146 150.874 84.4016 150.986C84.2886 151.094 84.1552 151.148 84.0015 151.148C83.8387 151.148 83.7008 151.094 83.5878 150.986C83.4748 150.874 83.4182 150.739 83.4182 150.581V143.324H82.2654V143.722C82.2654 143.88 82.2088 144.015 82.0958 144.127C81.9873 144.235 81.8539 144.289 81.6957 144.289C81.5375 144.289 81.4018 144.235 81.2888 144.127C81.1803 144.015 81.126 143.88 81.126 143.722Z" fill="white"/>
<path d="M93.7535 143.007L95.0081 145.552C95.1845 145.898 95.2726 146.274 95.2726 146.679C95.2726 147.075 95.1845 147.449 95.0081 147.8L93.7535 150.318C93.4868 150.872 93.0347 151.148 92.3972 151.148C92.0943 151.148 91.8208 151.07 91.5766 150.912C91.337 150.755 91.1561 150.557 91.0341 150.318L89.7727 147.8C89.6054 147.471 89.5218 147.098 89.5218 146.679C89.5218 146.261 89.6054 145.885 89.7727 145.552L91.0341 143.007C91.3189 142.453 91.7733 142.176 92.3972 142.176C93.0302 142.176 93.4823 142.453 93.7535 143.007ZM92.0174 143.574L90.8374 145.964C90.7289 146.202 90.6746 146.436 90.6746 146.666C90.6746 146.913 90.7289 147.15 90.8374 147.375L92.0513 149.791C92.1146 149.94 92.2299 150.014 92.3972 150.014C92.5419 150.014 92.6526 149.94 92.7295 149.791L93.9502 147.375C94.0632 147.136 94.1197 146.9 94.1197 146.666C94.1197 146.418 94.0632 146.184 93.9502 145.964L92.7566 143.574C92.6798 143.398 92.56 143.31 92.3972 143.31C92.2344 143.31 92.1078 143.398 92.0174 143.574Z" fill="white"/>
<path d="M99.2196 142.176H102.183C102.545 142.176 102.886 142.329 103.207 142.635C103.533 142.937 103.695 143.304 103.695 143.736C103.695 143.898 103.637 144.035 103.519 144.148C103.406 144.26 103.28 144.316 103.139 144.316C102.945 144.316 102.812 144.274 102.739 144.188C102.667 144.098 102.597 143.934 102.529 143.695C102.466 143.457 102.321 143.337 102.095 143.337H99.2806C99.145 143.337 99.0772 143.38 99.0772 143.466C99.0772 143.52 99.1065 143.583 99.1653 143.655L103.39 149.035C103.594 149.296 103.695 149.575 103.695 149.872C103.695 150.21 103.571 150.507 103.322 150.764C103.078 151.02 102.805 151.148 102.502 151.148H99.4298C99.0229 151.148 98.668 150.995 98.3651 150.689C98.0667 150.379 97.9175 150.039 97.9175 149.67C97.9175 149.247 98.1164 149.035 98.5143 149.035C98.668 149.035 98.7991 149.092 98.9076 149.204C99.0161 149.312 99.0704 149.44 99.0704 149.589C99.0704 149.71 99.1111 149.812 99.1924 149.893C99.2783 149.974 99.3846 150.014 99.5112 150.014H102.346C102.468 150.014 102.529 149.967 102.529 149.872C102.529 149.827 102.5 149.769 102.441 149.697L98.2227 144.316C98.0237 144.06 97.9243 143.781 97.9243 143.479C97.9243 143.128 98.0509 142.824 98.304 142.568C98.5572 142.307 98.8624 142.176 99.2196 142.176Z" fill="white"/>
<path d="M106.3 150.581V142.743C106.3 142.59 106.354 142.457 106.462 142.345C106.575 142.232 106.711 142.176 106.869 142.176C107.023 142.176 107.156 142.232 107.269 142.345C107.382 142.457 107.439 142.59 107.439 142.743V146.085H110.911V142.743C110.911 142.59 110.965 142.457 111.074 142.345C111.187 142.232 111.323 142.176 111.481 142.176C111.639 142.176 111.772 142.232 111.881 142.345C111.994 142.457 112.051 142.595 112.051 142.757V150.581C112.051 150.734 111.992 150.867 111.874 150.98C111.761 151.092 111.63 151.148 111.481 151.148C111.318 151.148 111.182 151.094 111.074 150.986C110.965 150.874 110.911 150.739 110.911 150.581V147.219H107.453V150.581C107.453 150.734 107.394 150.867 107.276 150.98C107.163 151.092 107.028 151.148 106.869 151.148C106.716 151.148 106.582 151.094 106.469 150.986C106.356 150.874 106.3 150.739 106.3 150.581Z" fill="white"/>
<path d="M115.279 142.176H119.89C120.039 142.176 120.17 142.232 120.283 142.345C120.401 142.457 120.46 142.59 120.46 142.743C120.46 142.901 120.403 143.038 120.29 143.155C120.177 143.268 120.044 143.324 119.89 143.324H118.168V150.014H119.89C120.048 150.014 120.182 150.071 120.29 150.183C120.403 150.291 120.46 150.424 120.46 150.581C120.46 150.739 120.403 150.874 120.29 150.986C120.177 151.094 120.044 151.148 119.89 151.148H115.279C115.12 151.148 114.985 151.094 114.872 150.986C114.763 150.874 114.709 150.739 114.709 150.581C114.709 150.424 114.763 150.291 114.872 150.183C114.985 150.071 115.12 150.014 115.279 150.014H117.028V143.324H115.279C115.12 143.324 114.985 143.268 114.872 143.155C114.763 143.043 114.709 142.91 114.709 142.757C114.709 142.595 114.763 142.457 114.872 142.345C114.985 142.232 115.12 142.176 115.279 142.176Z" fill="white"/>
<path d="M137.251 142.757V151.148H135.719L132.653 144.181V150.581C132.653 150.739 132.597 150.874 132.484 150.986C132.375 151.094 132.242 151.148 132.084 151.148C131.925 151.148 131.79 151.094 131.677 150.986C131.568 150.874 131.514 150.739 131.514 150.581V142.176H133.026L136.098 149.13V142.757C136.098 142.599 136.155 142.464 136.268 142.352C136.385 142.235 136.523 142.176 136.682 142.176C136.84 142.176 136.973 142.232 137.082 142.345C137.195 142.457 137.251 142.595 137.251 142.757Z" fill="white"/>
<path d="M139.944 150.359L142.249 142.602C142.34 142.318 142.53 142.176 142.819 142.176C143.099 142.176 143.276 142.295 143.348 142.534L145.62 150.413C145.638 150.471 145.647 150.527 145.647 150.581C145.647 150.739 145.593 150.874 145.484 150.986C145.376 151.094 145.251 151.148 145.111 151.148C144.813 151.148 144.623 151.011 144.542 150.737L144.08 149.197H141.483L140.981 150.845C140.968 150.917 140.911 150.986 140.812 151.054C140.712 151.117 140.604 151.148 140.486 151.148C140.319 151.148 140.181 151.092 140.072 150.98C139.964 150.867 139.91 150.73 139.91 150.568C139.91 150.5 139.921 150.431 139.944 150.359ZM142.805 144.802L141.829 148.05H143.748L142.805 144.802Z" fill="white"/>
<path d="M148.292 150.581V142.757C148.292 142.595 148.346 142.457 148.455 142.345C148.568 142.232 148.703 142.176 148.861 142.176C149.02 142.176 149.153 142.232 149.262 142.345C149.375 142.453 149.431 142.586 149.431 142.743V145.423L153.08 142.325C153.206 142.221 153.349 142.169 153.507 142.169C153.665 142.169 153.799 142.228 153.907 142.345C154.016 142.462 154.07 142.597 154.07 142.75C154.07 142.908 154.009 143.038 153.887 143.142L149.75 146.639L153.887 150.197C154 150.291 154.056 150.413 154.056 150.561C154.056 150.71 154 150.845 153.887 150.966C153.778 151.088 153.643 151.148 153.48 151.148C153.326 151.148 153.188 151.097 153.066 150.993L149.431 147.874V150.581C149.431 150.739 149.375 150.874 149.262 150.986C149.153 151.094 149.02 151.148 148.861 151.148C148.708 151.148 148.574 151.094 148.461 150.986C148.348 150.874 148.292 150.739 148.292 150.581Z" fill="white"/>
<path d="M156.735 150.359L159.041 142.602C159.131 142.318 159.321 142.176 159.61 142.176C159.891 142.176 160.067 142.295 160.139 142.534L162.411 150.413C162.429 150.471 162.438 150.527 162.438 150.581C162.438 150.739 162.384 150.874 162.276 150.986C162.167 151.094 162.043 151.148 161.903 151.148C161.604 151.148 161.414 151.011 161.333 150.737L160.872 149.197H158.274L157.773 150.845C157.759 150.917 157.703 150.986 157.603 151.054C157.504 151.117 157.395 151.148 157.278 151.148C157.11 151.148 156.972 151.092 156.864 150.98C156.755 150.867 156.701 150.73 156.701 150.568C156.701 150.5 156.712 150.431 156.735 150.359ZM159.597 144.802L158.62 148.05H160.54L159.597 144.802Z" fill="white"/>
<path d="M167.389 145.7V145.41L166.209 143.736V150.581C166.209 150.739 166.153 150.874 166.039 150.986C165.931 151.094 165.798 151.148 165.639 151.148C165.481 151.148 165.345 151.092 165.232 150.98C165.124 150.867 165.07 150.734 165.07 150.581V142.176H166.541L167.945 144.208L169.39 142.176H170.834V150.581C170.834 150.739 170.775 150.874 170.658 150.986C170.545 151.094 170.409 151.148 170.251 151.148C170.097 151.148 169.964 151.092 169.851 150.98C169.738 150.867 169.681 150.734 169.681 150.581V143.763L168.528 145.383V145.7C168.528 145.853 168.472 145.986 168.359 146.099C168.246 146.211 168.112 146.267 167.959 146.267C167.8 146.267 167.665 146.211 167.552 146.099C167.443 145.986 167.389 145.853 167.389 145.7Z" fill="white"/>
<path d="M177.711 143.007L178.965 145.552C179.142 145.898 179.23 146.274 179.23 146.679C179.23 147.075 179.142 147.449 178.965 147.8L177.711 150.318C177.444 150.872 176.992 151.148 176.354 151.148C176.052 151.148 175.778 151.07 175.534 150.912C175.294 150.755 175.113 150.557 174.991 150.318L173.73 147.8C173.563 147.471 173.479 147.098 173.479 146.679C173.479 146.261 173.563 145.885 173.73 145.552L174.991 143.007C175.276 142.453 175.731 142.176 176.354 142.176C176.987 142.176 177.439 142.453 177.711 143.007ZM175.975 143.574L174.795 145.964C174.686 146.202 174.632 146.436 174.632 146.666C174.632 146.913 174.686 147.15 174.795 147.375L176.009 149.791C176.072 149.94 176.187 150.014 176.354 150.014C176.499 150.014 176.61 149.94 176.687 149.791L177.907 147.375C178.02 147.136 178.077 146.9 178.077 146.666C178.077 146.418 178.02 146.184 177.907 145.964L176.714 143.574C176.637 143.398 176.517 143.31 176.354 143.31C176.192 143.31 176.065 143.398 175.975 143.574Z" fill="white"/>
<path d="M181.875 143.722V142.19H187.626V143.736C187.626 143.893 187.569 144.028 187.456 144.141C187.343 144.249 187.21 144.303 187.056 144.303C186.898 144.303 186.76 144.247 186.642 144.134C186.529 144.021 186.473 143.889 186.473 143.736V143.324H185.32V150.581C185.32 150.739 185.263 150.874 185.15 150.986C185.037 151.094 184.904 151.148 184.75 151.148C184.587 151.148 184.449 151.094 184.336 150.986C184.223 150.874 184.167 150.739 184.167 150.581V143.324H183.014V143.722C183.014 143.88 182.958 144.015 182.844 144.127C182.736 144.235 182.603 144.289 182.444 144.289C182.286 144.289 182.15 144.235 182.037 144.127C181.929 144.015 181.875 143.88 181.875 143.722Z" fill="white"/>
<path d="M194.502 143.007L195.757 145.552C195.933 145.898 196.021 146.274 196.021 146.679C196.021 147.075 195.933 147.449 195.757 147.8L194.502 150.318C194.235 150.872 193.783 151.148 193.146 151.148C192.843 151.148 192.569 151.07 192.325 150.912C192.086 150.755 191.905 150.557 191.783 150.318L190.521 147.8C190.354 147.471 190.27 147.098 190.27 146.679C190.27 146.261 190.354 145.885 190.521 145.552L191.783 143.007C192.068 142.453 192.522 142.176 193.146 142.176C193.779 142.176 194.231 142.453 194.502 143.007ZM192.766 143.574L191.586 145.964C191.478 146.202 191.423 146.436 191.423 146.666C191.423 146.913 191.478 147.15 191.586 147.375L192.8 149.791C192.863 149.94 192.979 150.014 193.146 150.014C193.291 150.014 193.401 149.94 193.478 149.791L194.699 147.375C194.812 147.136 194.868 146.9 194.868 146.666C194.868 146.418 194.812 146.184 194.699 145.964L193.505 143.574C193.428 143.398 193.309 143.31 193.146 143.31C192.983 143.31 192.857 143.398 192.766 143.574Z" fill="white"/>
<path fill-rule="evenodd" clip-rule="evenodd" d="M78.8462 181.067C78.8462 180.715 78.7549 180.384 78.5948 180.096C79.1857 177.851 80.0606 175.642 81.1136 173.759C82.3305 171.583 83.7304 169.939 85.1159 169.118L85.0458 169H91.8702L91.8002 169.118C93.6319 170.203 95.302 172.182 96.5796 174.855L98.3841 173.993C97.443 172.023 96.2678 170.316 94.9023 169H104C108.418 169 112 172.582 112 177V179.067H100.077C98.9724 179.067 98.0769 179.963 98.0769 181.067V191.055C98.0769 191.704 98.3863 192.281 98.8657 192.647C97.724 198.001 94.8126 202.14 91.8002 203.925L91.8697 204.042H85.0464L85.1159 203.925C82.1041 202.141 79.1988 198.001 78.0575 192.647C78.5368 192.281 78.8462 191.704 78.8462 191.055V181.067ZM100.823 193.055C99.8438 197.653 97.6311 201.563 94.9486 204.042H104C108.418 204.042 112 200.46 112 196.042V193.055H100.823ZM112 191.055V181.067H100.077V191.055H112ZM64 193.055H76.0998C77.0789 197.653 79.2871 201.563 81.9682 204.042H72C67.5817 204.042 64 200.46 64 196.042V193.055ZM76.8462 191.055H64V181.067H76.8462V191.055ZM64 179.067H76.8023C77.4281 176.849 78.3099 174.675 79.368 172.783C80.168 171.352 81.0899 170.045 82.1073 169H72C67.5817 169 64 172.582 64 177V179.067Z" fill="white"/>
<g filter="url(#filter0_d)">
<rect x="38" y="333" width="335" height="100" rx="16" fill="url(#paint2_linear)"/>
<path d="M309 289.657L309 333L256 333L302.172 286.828C304.691 284.309 309 286.093 309 289.657Z" fill="url(#paint3_linear)"/>
</g>
<path d="M99.582 387.977C99.2305 390.984 98.1172 393.309 96.2422 394.949C94.3802 396.577 91.8997 397.391 88.8008 397.391C85.4414 397.391 82.7461 396.186 80.7148 393.777C78.6966 391.368 77.6875 388.146 77.6875 384.109V381.375C77.6875 378.732 78.1562 376.408 79.0938 374.402C80.0443 372.397 81.3854 370.861 83.1172 369.793C84.849 368.712 86.8542 368.172 89.1328 368.172C92.1536 368.172 94.5755 369.018 96.3984 370.711C98.2214 372.391 99.2826 374.721 99.582 377.703H95.8125C95.487 375.438 94.7773 373.797 93.6836 372.781C92.6029 371.766 91.0859 371.258 89.1328 371.258C86.737 371.258 84.8555 372.143 83.4883 373.914C82.1341 375.685 81.457 378.204 81.457 381.473V384.227C81.457 387.312 82.1016 389.767 83.3906 391.59C84.6797 393.413 86.4831 394.324 88.8008 394.324C90.8841 394.324 92.4792 393.855 93.5859 392.918C94.7057 391.967 95.4479 390.32 95.8125 387.977H99.582ZM117.199 397C116.991 396.583 116.822 395.841 116.691 394.773C115.012 396.518 113.007 397.391 110.676 397.391C108.592 397.391 106.88 396.805 105.539 395.633C104.211 394.448 103.547 392.951 103.547 391.141C103.547 388.94 104.38 387.234 106.047 386.023C107.727 384.799 110.083 384.188 113.117 384.188H116.633V382.527C116.633 381.264 116.255 380.262 115.5 379.52C114.745 378.764 113.632 378.387 112.16 378.387C110.871 378.387 109.79 378.712 108.918 379.363C108.046 380.014 107.609 380.802 107.609 381.727H103.977C103.977 380.672 104.348 379.656 105.09 378.68C105.845 377.69 106.861 376.909 108.137 376.336C109.426 375.763 110.839 375.477 112.375 375.477C114.81 375.477 116.717 376.089 118.098 377.312C119.478 378.523 120.194 380.197 120.246 382.332V392.059C120.246 393.999 120.493 395.542 120.988 396.688V397H117.199ZM111.203 394.246C112.336 394.246 113.41 393.953 114.426 393.367C115.441 392.781 116.177 392.02 116.633 391.082V386.746H113.801C109.374 386.746 107.16 388.042 107.16 390.633C107.16 391.766 107.538 392.651 108.293 393.289C109.048 393.927 110.018 394.246 111.203 394.246ZM138.215 391.395C138.215 390.418 137.844 389.663 137.102 389.129C136.372 388.582 135.09 388.113 133.254 387.723C131.431 387.332 129.979 386.863 128.898 386.316C127.831 385.77 127.036 385.118 126.516 384.363C126.008 383.608 125.754 382.71 125.754 381.668C125.754 379.936 126.483 378.471 127.941 377.273C129.413 376.076 131.288 375.477 133.566 375.477C135.962 375.477 137.902 376.095 139.387 377.332C140.884 378.569 141.633 380.151 141.633 382.078H138C138 381.089 137.577 380.236 136.73 379.52C135.897 378.803 134.842 378.445 133.566 378.445C132.251 378.445 131.223 378.732 130.48 379.305C129.738 379.878 129.367 380.626 129.367 381.551C129.367 382.423 129.712 383.081 130.402 383.523C131.092 383.966 132.336 384.389 134.133 384.793C135.943 385.197 137.408 385.678 138.527 386.238C139.647 386.798 140.474 387.475 141.008 388.27C141.555 389.051 141.828 390.008 141.828 391.141C141.828 393.029 141.073 394.546 139.562 395.691C138.052 396.824 136.092 397.391 133.684 397.391C131.991 397.391 130.493 397.091 129.191 396.492C127.889 395.893 126.867 395.06 126.125 393.992C125.396 392.911 125.031 391.746 125.031 390.496H128.645C128.71 391.707 129.191 392.671 130.09 393.387C131.001 394.09 132.199 394.441 133.684 394.441C135.051 394.441 136.145 394.168 136.965 393.621C137.798 393.061 138.215 392.319 138.215 391.395ZM150.148 378.426C151.75 376.46 153.833 375.477 156.398 375.477C160.865 375.477 163.117 377.996 163.156 383.035V397H159.543V383.016C159.53 381.492 159.178 380.366 158.488 379.637C157.811 378.908 156.75 378.543 155.305 378.543C154.133 378.543 153.104 378.855 152.219 379.48C151.333 380.105 150.643 380.926 150.148 381.941V397H146.535V367H150.148V378.426ZM186.457 386.668C186.457 389.897 185.715 392.495 184.23 394.461C182.746 396.414 180.754 397.391 178.254 397.391C175.585 397.391 173.521 396.447 172.062 394.559L171.887 397H168.566V367H172.18V378.191C173.638 376.382 175.65 375.477 178.215 375.477C180.78 375.477 182.792 376.447 184.25 378.387C185.721 380.327 186.457 382.983 186.457 386.355V386.668ZM182.844 386.258C182.844 383.797 182.368 381.896 181.418 380.555C180.467 379.214 179.1 378.543 177.316 378.543C174.934 378.543 173.221 379.65 172.18 381.863V391.004C173.286 393.217 175.012 394.324 177.355 394.324C179.087 394.324 180.435 393.654 181.398 392.312C182.362 390.971 182.844 388.953 182.844 386.258ZM204.074 397C203.866 396.583 203.697 395.841 203.566 394.773C201.887 396.518 199.882 397.391 197.551 397.391C195.467 397.391 193.755 396.805 192.414 395.633C191.086 394.448 190.422 392.951 190.422 391.141C190.422 388.94 191.255 387.234 192.922 386.023C194.602 384.799 196.958 384.188 199.992 384.188H203.508V382.527C203.508 381.264 203.13 380.262 202.375 379.52C201.62 378.764 200.507 378.387 199.035 378.387C197.746 378.387 196.665 378.712 195.793 379.363C194.921 380.014 194.484 380.802 194.484 381.727H190.852C190.852 380.672 191.223 379.656 191.965 378.68C192.72 377.69 193.736 376.909 195.012 376.336C196.301 375.763 197.714 375.477 199.25 375.477C201.685 375.477 203.592 376.089 204.973 377.312C206.353 378.523 207.069 380.197 207.121 382.332V392.059C207.121 393.999 207.368 395.542 207.863 396.688V397H204.074ZM198.078 394.246C199.211 394.246 200.285 393.953 201.301 393.367C202.316 392.781 203.052 392.02 203.508 391.082V386.746H200.676C196.249 386.746 194.035 388.042 194.035 390.633C194.035 391.766 194.413 392.651 195.168 393.289C195.923 393.927 196.893 394.246 198.078 394.246ZM221.262 394.441C222.551 394.441 223.677 394.051 224.641 393.27C225.604 392.488 226.138 391.512 226.242 390.34H229.66C229.595 391.551 229.178 392.703 228.41 393.797C227.642 394.891 226.613 395.763 225.324 396.414C224.048 397.065 222.694 397.391 221.262 397.391C218.384 397.391 216.092 396.434 214.387 394.52C212.694 392.592 211.848 389.962 211.848 386.629V386.023C211.848 383.966 212.225 382.137 212.98 380.535C213.736 378.934 214.816 377.69 216.223 376.805C217.642 375.919 219.315 375.477 221.242 375.477C223.612 375.477 225.578 376.186 227.141 377.605C228.716 379.025 229.556 380.867 229.66 383.133H226.242C226.138 381.766 225.617 380.646 224.68 379.773C223.755 378.888 222.609 378.445 221.242 378.445C219.406 378.445 217.98 379.109 216.965 380.438C215.962 381.753 215.461 383.66 215.461 386.16V386.844C215.461 389.279 215.962 391.154 216.965 392.469C217.967 393.784 219.4 394.441 221.262 394.441ZM239.621 387.215L237.355 389.578V397H233.742V367H237.355V385.145L239.289 382.82L245.871 375.867H250.266L242.043 384.695L251.223 397H246.984L239.621 387.215ZM274.27 381.746H282.199V385.164H274.27V394.148H270.637V385.164H262.707V381.746H270.637V373.445H274.27V381.746ZM298.117 397H294.484V372.918L287.199 375.594V372.312L297.551 368.426H298.117V397ZM308.391 374.031C308.391 372.326 308.931 370.919 310.012 369.812C311.105 368.706 312.505 368.152 314.211 368.152C315.943 368.152 317.342 368.712 318.41 369.832C319.491 370.939 320.031 372.378 320.031 374.148V375.535C320.031 377.254 319.484 378.66 318.391 379.754C317.31 380.835 315.93 381.375 314.25 381.375C312.557 381.375 311.158 380.835 310.051 379.754C308.944 378.66 308.391 377.208 308.391 375.398V374.031ZM311.086 375.535C311.086 376.551 311.372 377.391 311.945 378.055C312.518 378.706 313.286 379.031 314.25 379.031C315.174 379.031 315.917 378.712 316.477 378.074C317.049 377.436 317.336 376.564 317.336 375.457V374.031C317.336 373.016 317.056 372.176 316.496 371.512C315.936 370.848 315.174 370.516 314.211 370.516C313.247 370.516 312.486 370.848 311.926 371.512C311.366 372.176 311.086 373.042 311.086 374.109V375.535ZM322.238 390.027C322.238 388.322 322.779 386.922 323.859 385.828C324.953 384.721 326.353 384.168 328.059 384.168C329.764 384.168 331.164 384.715 332.258 385.809C333.352 386.902 333.898 388.354 333.898 390.164V391.551C333.898 393.257 333.352 394.663 332.258 395.77C331.177 396.863 329.79 397.41 328.098 397.41C326.405 397.41 325.005 396.87 323.898 395.789C322.792 394.695 322.238 393.243 322.238 391.434V390.027ZM324.934 391.551C324.934 392.579 325.22 393.426 325.793 394.09C326.366 394.741 327.134 395.066 328.098 395.066C329.035 395.066 329.784 394.747 330.344 394.109C330.904 393.458 331.184 392.579 331.184 391.473V390.027C331.184 388.999 330.897 388.159 330.324 387.508C329.764 386.857 329.009 386.531 328.059 386.531C327.134 386.531 326.379 386.857 325.793 387.508C325.22 388.146 324.934 389.012 324.934 390.105V391.551ZM315.07 394.852L313.02 393.562L326.906 371.336L328.957 372.625L315.07 394.852Z" fill="white"/>
<defs>
<filter id="filter0_d" x="0" y="268.649" width="411" height="223.351" filterUnits="userSpaceOnUse" color-interpolation-filters="sRGB">
<feFlood flood-opacity="0" result="BackgroundImageFix"/>
<feColorMatrix in="SourceAlpha" type="matrix" values="0 0 0 0 0 0 0 0 0 0 0 0 0 0 0 0 0 0 127 0"/>
<feOffset dy="21"/>
<feGaussianBlur stdDeviation="19"/>
<feColorMatrix type="matrix" values="0 0 0 0 0.0901961 0 0 0 0 0.164706 0 0 0 0 0.247059 0 0 0 0.13 0"/>
<feBlend mode="normal" in2="BackgroundImageFix" result="effect1_dropShadow"/>
<feBlend mode="normal" in="SourceGraphic" in2="effect1_dropShadow" result="shape"/>
</filter>
<linearGradient id="paint0_linear" x1="398" y1="133.367" x2="398" y2="363.367" gradientUnits="userSpaceOnUse">
<stop stop-color="#0595CC"/>
<stop offset="1" stop-color="#2FA6FA" stop-opacity="0.2"/>
</linearGradient>
<linearGradient id="paint1_linear" x1="206" y1="5.00195" x2="206" y2="235.002" gradientUnits="userSpaceOnUse">
<stop stop-color="#0595CC"/>
<stop offset="1" stop-color="#2FA6FA" stop-opacity="0.2"/>
</linearGradient>
<linearGradient id="paint2_linear" x1="38" y1="433" x2="370.526" y2="325.358" gradientUnits="userSpaceOnUse">
<stop stop-color="#1E7AE6"/>
<stop offset="1" stop-color="#2FA5F1"/>
</linearGradient>
<linearGradient id="paint3_linear" x1="256" y1="333" x2="261.564" y2="275.416" gradientUnits="userSpaceOnUse">
<stop stop-color="#1E7AE6"/>
<stop offset="1" stop-color="#2FA5F1"/>
</linearGradient>
</defs>
</svg>
