<svg width="600" height="600" viewBox="0 0 600 600" fill="none" xmlns="http://www.w3.org/2000/svg">
<g opacity="0.5">
<circle opacity="0.5" cx="299.999" cy="300" r="166.87" stroke="#CDD1D6" stroke-width="2"/>
<circle opacity="0.4" cx="300.001" cy="300" r="212.357" stroke="#CDD1D6" stroke-width="2"/>
<circle opacity="0.32" cx="300.001" cy="300" r="255.679" stroke="#CDD1D6" stroke-width="2"/>
<circle opacity="0.16" cx="300" cy="300" r="299" stroke="#CDD1D6" stroke-width="2"/>
<circle opacity="0.8" cx="299.999" cy="300" r="122.466" stroke="#CDD1D6" stroke-width="2"/>
</g>
<circle cx="297.833" cy="294.585" r="81.2274" fill="#113355"/>
<path d="M276.834 331.706L272.868 315.002L288.5 311.29" stroke="white" stroke-width="3" stroke-miterlimit="10" stroke-linecap="round" stroke-linejoin="round"/>
<path d="M318.595 257.465L322.561 274.169L306.93 277.881" stroke="white" stroke-width="3" stroke-miterlimit="10" stroke-linecap="round" stroke-linejoin="round"/>
<path d="M322.562 274.169C316.729 267.209 307.864 262.569 297.831 262.569C280.1 262.569 265.868 276.953 265.868 294.585" stroke="white" stroke-width="3" stroke-miterlimit="10" stroke-linecap="round" stroke-linejoin="round"/>
<path d="M274.736 316.393C280.569 322.425 288.735 326.369 297.834 326.369C315.565 326.369 329.797 312.217 329.797 294.585" stroke="white" stroke-width="3" stroke-miterlimit="10" stroke-linecap="round" stroke-linejoin="round"/>
<path d="M161.215 197.326C158.143 195.177 154.858 192.887 151.645 190.614C151.574 190.561 151.503 190.508 151.414 190.455C151.059 190.188 150.651 189.904 150.153 189.744L150.118 189.727C141.525 187.649 132.789 185.519 124.338 183.459C116.668 181.595 109.016 179.731 101.346 177.867C101.151 177.813 100.955 177.76 100.742 177.707C100.05 177.511 99.2509 177.298 98.3987 177.405C98.1502 177.44 97.9371 177.529 97.7418 177.653L97.5287 177.831C97.1914 178.151 97.0139 178.559 96.9251 178.79L96.8718 178.932V179.749L96.9073 179.873C101.754 193.455 106.726 207.233 111.519 220.566C115.212 230.829 119.047 241.464 122.794 251.903C123.024 252.614 123.681 253.075 124.498 253.146H124.676C125.439 253.146 126.114 252.773 126.451 252.17L140.513 231.663C143.939 226.674 147.366 221.667 150.793 216.678C152.195 214.636 153.598 212.577 155 210.535C157.309 207.162 159.688 203.682 162.049 200.291L162.173 200.113V199.9C162.227 199.279 162.244 198 161.215 197.326ZM144.738 204.8C141.436 206.523 138.063 208.298 134.671 210.056C136.642 207.943 138.631 205.812 140.601 203.7C143.069 201.036 145.644 198.284 148.165 195.586L148.218 195.532C148.431 195.248 148.698 194.982 148.982 194.698C149.177 194.503 149.39 194.307 149.585 194.077C150.899 194.982 152.231 195.905 153.509 196.811C154.432 197.468 155.373 198.125 156.332 198.781C152.426 200.77 148.52 202.812 144.738 204.8ZM136.252 203.948C133.713 206.7 131.085 209.523 128.475 212.311C123.415 206.167 118.248 199.936 113.242 193.917C110.969 191.183 108.679 188.431 106.406 185.696L106.388 185.679C105.873 185.093 105.376 184.453 104.879 183.85C104.56 183.441 104.222 183.051 103.885 182.643C105.944 183.175 108.022 183.672 110.064 184.152C111.857 184.578 113.721 185.022 115.55 185.483C125.847 187.987 136.163 190.49 146.461 192.993C143.034 196.651 139.589 200.362 136.252 203.948ZM127.321 238.552C127.516 236.688 127.729 234.77 127.907 232.888C128.067 231.379 128.227 229.834 128.386 228.361C128.635 225.999 128.901 223.549 129.114 221.152L129.167 220.726C129.345 219.199 129.523 217.619 129.629 216.039C129.824 215.932 130.037 215.826 130.268 215.737C130.535 215.613 130.801 215.506 131.067 215.347C135.169 213.198 139.27 211.05 143.389 208.919C147.49 206.789 151.698 204.587 155.87 202.403C152.071 207.907 148.254 213.465 144.561 218.88C141.383 223.514 138.116 228.29 134.867 232.995C133.588 234.877 132.257 236.794 130.996 238.641C129.576 240.7 128.12 242.813 126.7 244.926C126.877 242.795 127.09 240.647 127.321 238.552ZM102.571 186.833C102.34 186.193 102.092 185.537 101.879 184.915C106.672 190.703 111.502 196.527 116.207 202.173C118.639 205.102 121.071 208.014 123.504 210.961C123.983 211.512 124.463 212.097 124.924 212.666C125.528 213.394 126.131 214.157 126.788 214.885C126.575 216.714 126.398 218.56 126.202 220.336C126.078 221.578 125.954 222.821 125.812 224.082V224.1C125.759 224.899 125.652 225.698 125.563 226.479C125.439 227.562 125.155 230.012 125.155 230.012L125.137 230.136C124.818 233.723 124.427 237.345 124.054 240.86C123.894 242.316 123.752 243.807 123.593 245.299C123.504 245.032 123.397 244.766 123.308 244.517C123.042 243.807 122.776 243.062 122.527 242.334L120.628 237.06C114.609 220.318 108.59 203.593 102.571 186.833Z" fill="white"/>
<path fill-rule="evenodd" clip-rule="evenodd" d="M124.804 444.584C154.715 444.584 178.964 420.336 178.964 390.424C178.964 360.512 154.715 336.264 124.804 336.264C94.8919 336.264 70.6436 360.512 70.6436 390.424C70.6436 420.336 94.8919 444.584 124.804 444.584ZM120.085 388.338C120.935 389.225 121.908 389.92 122.951 390.424C121.908 390.927 120.935 391.622 120.085 392.509L95.7137 417.92H104.824L122.995 399.186C125.352 396.756 129.252 396.756 131.609 399.186L149.78 417.92H158.89L134.519 392.509C133.669 391.622 132.696 390.927 131.653 390.424C132.696 389.92 133.669 389.225 134.519 388.338L158.89 362.927H149.78L131.609 381.661C129.252 384.091 125.352 384.091 122.995 381.661L104.824 362.927H95.7137L120.085 388.338Z" fill="url(#paint0_linear)"/>
<path fill-rule="evenodd" clip-rule="evenodd" d="M467.661 444.584C497.573 444.584 521.821 420.336 521.821 390.424C521.821 360.512 497.573 336.264 467.661 336.264C437.749 336.264 413.501 360.512 413.501 390.424C413.501 420.336 437.749 444.584 467.661 444.584ZM464.435 419.573C466.59 421.827 470.021 422.92 474.728 422.92C477.925 422.92 480.888 422.281 483.628 420.956C486.415 419.631 488.452 417.55 489.787 414.842C491.122 412.123 491.825 409.182 491.825 406.009C491.825 404.568 491.591 403.011 491.239 401.221C490.888 399.431 490.068 397.583 488.851 395.619C487.633 393.655 485.888 392.097 483.616 391.005C481.415 389.854 479.377 389.273 477.574 389.273C476.473 389.389 475.419 389.622 474.435 390.029L491.052 373.455L488.382 370.805L461.227 370.863V359.253L458.615 357.928H451.636V359.892L454.025 362.263V370.922H443.497V374.734H453.966V395.166C453.966 398.106 454.833 400.477 456.519 402.209C458.264 403.941 461.297 404.801 465.77 404.801C467.573 404.801 469.201 404.278 470.712 403.301C472.222 402.325 473.382 400.884 474.201 398.978C474.229 398.767 474.269 398.578 474.304 398.413C474.344 398.225 474.377 398.068 474.377 397.944C474.377 397.421 474.201 396.967 473.85 396.56C473.452 396.27 473.159 396.154 472.866 396.154C472.691 396.154 472.574 396.212 472.398 396.328C472.281 396.386 472.164 396.56 472.047 396.793C471.239 397.885 470.302 398.862 469.201 399.675C468.1 400.477 466.988 400.884 465.77 400.884C464.259 400.884 463.1 400.361 462.339 399.268C461.59 398.164 461.238 396.781 461.238 395.108V374.734H481.754L466.929 394.352V395.968L470.208 394.41C472.012 393.434 473.464 392.911 474.681 392.911C476.543 392.911 478.23 393.376 479.799 394.352C481.368 395.27 482.527 396.77 483.347 398.792C484.155 400.756 484.565 403.127 484.565 405.951C484.565 408.555 484.225 410.856 483.464 412.878C482.703 414.901 481.544 416.458 479.974 417.492C478.405 418.527 476.66 419.05 474.681 419.05C473.276 419.05 471.883 418.875 470.489 418.469C469.096 418.062 468.054 417.423 467.409 416.563C468.171 416.33 468.861 415.819 469.388 415.121C469.915 414.436 470.208 413.506 470.208 412.355C470.208 411.425 469.974 410.623 469.623 409.984C469.271 409.345 468.756 408.834 468.112 408.485C467.468 408.078 466.66 407.904 465.723 407.904C464.786 407.904 463.978 408.136 463.334 408.485C462.69 408.834 462.175 409.345 461.824 409.984C461.414 410.623 461.238 411.437 461.238 412.355C461.238 414.959 462.28 417.318 464.435 419.573Z" fill="url(#paint1_linear)"/>
<path fill-rule="evenodd" clip-rule="evenodd" d="M467.655 251.213L443.989 218.453L467.655 232.186V232.189L491.334 218.453L467.655 251.213ZM467.655 205.005L491.318 215.572L467.655 229.312L443.989 215.572L467.655 205.005ZM467.655 175.476L491.318 214.045L467.655 203.472L443.989 214.045L467.655 175.476ZM467.661 159.184C437.749 159.184 413.501 183.432 413.501 213.344C413.501 243.255 437.749 267.504 467.661 267.504C497.573 267.504 521.821 243.255 521.821 213.344C521.821 183.432 497.573 159.184 467.661 159.184Z" fill="url(#paint2_linear)"/>
<path fill-rule="evenodd" clip-rule="evenodd" d="M295.722 475.44L298.925 462.595C299.292 462.686 299.742 462.786 300.251 462.899C304.783 463.902 314.062 465.956 312.364 472.77C310.701 479.431 301.155 476.884 296.778 475.716C296.38 475.61 296.025 475.515 295.722 475.44ZM290.575 496.084L294.108 481.922C294.546 482.031 295.082 482.152 295.689 482.288C301.118 483.506 312.244 486.003 310.375 493.497C308.551 500.827 297.077 497.796 291.828 496.409C291.356 496.285 290.935 496.173 290.575 496.084ZM325.076 472.885C324.231 478.596 321.065 481.362 316.861 482.331C322.633 485.336 325.571 489.944 322.773 497.933C319.3 507.855 311.051 508.692 300.081 506.617L297.418 517.286L290.985 515.683L293.613 505.156C291.945 504.742 290.241 504.302 288.486 503.826L285.849 514.402L279.423 512.799L282.085 502.109C280.583 501.724 279.057 501.316 277.499 500.925L269.127 498.838L272.321 491.474C272.321 491.474 277.061 492.735 276.997 492.641C278.818 493.092 279.626 491.905 279.945 491.113L284.153 474.247C284.389 474.303 284.618 474.362 284.832 474.415C284.575 474.313 284.343 474.247 284.163 474.201L287.165 462.161C287.244 460.794 286.773 459.07 284.167 458.419C284.268 458.351 279.495 457.257 279.495 457.257L281.206 450.386L290.078 452.601L290.071 452.634C291.405 452.966 292.779 453.281 294.179 453.6L296.815 443.035L303.245 444.638L300.662 454.996C302.388 455.39 304.125 455.788 305.816 456.209L308.381 445.919L314.815 447.522L312.18 458.091C320.302 460.889 326.243 465.083 325.076 472.885ZM297.174 426C267.263 426 243.014 450.248 243.014 480.16C243.014 510.072 267.263 534.32 297.174 534.32C327.086 534.32 351.334 510.072 351.334 480.16C351.334 450.248 327.086 426 297.174 426Z" fill="url(#paint3_linear)"/>
<path d="M124.804 267.504C154.715 267.504 178.964 243.256 178.964 213.344C178.964 183.432 154.715 159.184 124.804 159.184C94.8919 159.184 70.6436 183.432 70.6436 213.344C70.6436 243.256 94.8919 267.504 124.804 267.504Z" fill="url(#paint4_linear)"/>
<path d="M160.389 197.309C157.316 195.161 154.031 192.87 150.817 190.597C150.746 190.544 150.675 190.49 150.586 190.437C150.231 190.171 149.823 189.887 149.326 189.727L149.29 189.709C140.696 187.631 131.959 185.501 123.506 183.441C115.835 181.576 108.182 179.712 100.511 177.847C100.315 177.794 100.12 177.741 99.9068 177.687C99.2142 177.492 98.4151 177.279 97.5628 177.385C97.3142 177.421 97.1011 177.51 96.9058 177.634L96.6927 177.812C96.3553 178.131 96.1777 178.54 96.0889 178.77L96.0356 178.913V179.729L96.0712 179.854C100.919 193.438 105.891 207.218 110.686 220.554C114.379 230.817 118.215 241.454 121.961 251.896C122.192 252.606 122.849 253.067 123.666 253.139H123.844C124.607 253.139 125.282 252.766 125.62 252.162L139.683 231.652C143.111 226.662 146.538 221.655 149.965 216.665C151.368 214.623 152.771 212.563 154.173 210.521C156.482 207.147 158.861 203.666 161.223 200.275L161.347 200.097V199.884C161.401 199.263 161.418 197.984 160.389 197.309ZM143.91 204.785C140.607 206.508 137.233 208.283 133.841 210.041C135.812 207.928 137.801 205.797 139.772 203.684C142.24 201.021 144.815 198.268 147.337 195.569L147.39 195.516C147.603 195.232 147.87 194.965 148.154 194.681C148.349 194.486 148.562 194.29 148.757 194.06C150.071 194.965 151.403 195.889 152.682 196.794C153.605 197.451 154.546 198.108 155.505 198.765C151.599 200.754 147.692 202.796 143.91 204.785ZM135.422 203.933C132.882 206.685 130.254 209.509 127.644 212.296C122.583 206.152 117.416 199.92 112.408 193.9C110.135 191.165 107.844 188.413 105.571 185.678L105.554 185.66C105.039 185.074 104.541 184.435 104.044 183.831C103.725 183.423 103.387 183.032 103.05 182.624C105.11 183.157 107.187 183.654 109.229 184.133C111.023 184.559 112.887 185.003 114.716 185.465C125.016 187.969 135.333 190.473 145.632 192.976C142.205 196.634 138.76 200.346 135.422 203.933ZM126.49 238.542C126.685 236.677 126.898 234.76 127.076 232.877C127.235 231.368 127.395 229.823 127.555 228.349C127.804 225.987 128.07 223.537 128.283 221.14L128.336 220.713C128.514 219.186 128.692 217.606 128.798 216.026C128.993 215.919 129.207 215.812 129.437 215.724C129.704 215.599 129.97 215.493 130.236 215.333C134.338 213.184 138.44 211.036 142.56 208.905C146.662 206.774 150.871 204.572 155.044 202.388C151.243 207.893 147.426 213.451 143.732 218.867C140.553 223.501 137.286 228.278 134.037 232.984C132.758 234.866 131.426 236.784 130.165 238.631C128.745 240.691 127.289 242.804 125.868 244.917C126.046 242.786 126.259 240.637 126.49 238.542ZM101.736 186.815C101.505 186.175 101.256 185.518 101.043 184.897C105.838 190.686 110.668 196.51 115.373 202.157C117.806 205.087 120.239 207.999 122.672 210.947C123.151 211.497 123.631 212.083 124.092 212.652C124.696 213.38 125.3 214.143 125.957 214.871C125.744 216.7 125.566 218.547 125.371 220.323C125.247 221.566 125.122 222.809 124.98 224.07V224.087C124.927 224.886 124.82 225.686 124.732 226.467C124.607 227.55 124.323 230.001 124.323 230.001L124.305 230.125C123.986 233.712 123.595 237.334 123.222 240.85C123.062 242.307 122.92 243.798 122.761 245.29C122.672 245.023 122.565 244.757 122.476 244.508C122.21 243.798 121.944 243.052 121.695 242.324L119.795 237.05C113.775 220.305 107.756 203.578 101.736 186.815Z" fill="white"/>
<g filter="url(#filter0_d)">
<rect x="133" y="24" width="335" height="100" rx="16" fill="url(#paint5_linear)"/>
<path d="M274 167.343L274 124L327 124L280.828 170.172C278.309 172.691 274 170.907 274 167.343Z" fill="url(#paint6_linear)"/>
</g>
<path d="M194.582 78.9766C194.23 81.9844 193.117 84.3086 191.242 85.9492C189.38 87.5768 186.9 88.3906 183.801 88.3906C180.441 88.3906 177.746 87.1862 175.715 84.7773C173.697 82.3685 172.688 79.1458 172.688 75.1094V72.375C172.688 69.7318 173.156 67.4076 174.094 65.4023C175.044 63.3971 176.385 61.8607 178.117 60.793C179.849 59.7122 181.854 59.1719 184.133 59.1719C187.154 59.1719 189.576 60.0182 191.398 61.7109C193.221 63.3906 194.283 65.7214 194.582 68.7031H190.812C190.487 66.4375 189.777 64.7969 188.684 63.7812C187.603 62.7656 186.086 62.2578 184.133 62.2578C181.737 62.2578 179.855 63.1432 178.488 64.9141C177.134 66.6849 176.457 69.2044 176.457 72.4727V75.2266C176.457 78.3125 177.102 80.7669 178.391 82.5898C179.68 84.4128 181.483 85.3242 183.801 85.3242C185.884 85.3242 187.479 84.8555 188.586 83.918C189.706 82.9674 190.448 81.3203 190.812 78.9766H194.582ZM212.199 88C211.991 87.5833 211.822 86.8411 211.691 85.7734C210.012 87.5182 208.007 88.3906 205.676 88.3906C203.592 88.3906 201.88 87.8047 200.539 86.6328C199.211 85.4479 198.547 83.9505 198.547 82.1406C198.547 79.9401 199.38 78.2344 201.047 77.0234C202.727 75.7995 205.083 75.1875 208.117 75.1875H211.633V73.5273C211.633 72.2643 211.255 71.2617 210.5 70.5195C209.745 69.7643 208.632 69.3867 207.16 69.3867C205.871 69.3867 204.79 69.7122 203.918 70.3633C203.046 71.0143 202.609 71.8021 202.609 72.7266H198.977C198.977 71.6719 199.348 70.6562 200.09 69.6797C200.845 68.6901 201.861 67.9089 203.137 67.3359C204.426 66.763 205.839 66.4766 207.375 66.4766C209.81 66.4766 211.717 67.0885 213.098 68.3125C214.478 69.5234 215.194 71.1966 215.246 73.332V83.0586C215.246 84.9987 215.493 86.5417 215.988 87.6875V88H212.199ZM206.203 85.2461C207.336 85.2461 208.41 84.9531 209.426 84.3672C210.441 83.7812 211.177 83.0195 211.633 82.082V77.7461H208.801C204.374 77.7461 202.16 79.0417 202.16 81.6328C202.16 82.7656 202.538 83.651 203.293 84.2891C204.048 84.9271 205.018 85.2461 206.203 85.2461ZM233.215 82.3945C233.215 81.418 232.844 80.6628 232.102 80.1289C231.372 79.582 230.09 79.1133 228.254 78.7227C226.431 78.332 224.979 77.8633 223.898 77.3164C222.831 76.7695 222.036 76.1185 221.516 75.3633C221.008 74.6081 220.754 73.7096 220.754 72.668C220.754 70.9362 221.483 69.4714 222.941 68.2734C224.413 67.0755 226.288 66.4766 228.566 66.4766C230.962 66.4766 232.902 67.0951 234.387 68.332C235.884 69.569 236.633 71.151 236.633 73.0781H233C233 72.0885 232.577 71.2357 231.73 70.5195C230.897 69.8034 229.842 69.4453 228.566 69.4453C227.251 69.4453 226.223 69.7318 225.48 70.3047C224.738 70.8776 224.367 71.6263 224.367 72.5508C224.367 73.4232 224.712 74.0807 225.402 74.5234C226.092 74.9661 227.336 75.3893 229.133 75.793C230.943 76.1966 232.408 76.6784 233.527 77.2383C234.647 77.7982 235.474 78.4753 236.008 79.2695C236.555 80.0508 236.828 81.0078 236.828 82.1406C236.828 84.0286 236.073 85.5456 234.562 86.6914C233.052 87.8242 231.092 88.3906 228.684 88.3906C226.991 88.3906 225.493 88.0911 224.191 87.4922C222.889 86.8932 221.867 86.0599 221.125 84.9922C220.396 83.9115 220.031 82.7461 220.031 81.4961H223.645C223.71 82.707 224.191 83.6706 225.09 84.3867C226.001 85.0898 227.199 85.4414 228.684 85.4414C230.051 85.4414 231.145 85.168 231.965 84.6211C232.798 84.0612 233.215 83.319 233.215 82.3945ZM245.148 69.4258C246.75 67.4596 248.833 66.4766 251.398 66.4766C255.865 66.4766 258.117 68.9961 258.156 74.0352V88H254.543V74.0156C254.53 72.4922 254.178 71.3659 253.488 70.6367C252.811 69.9076 251.75 69.543 250.305 69.543C249.133 69.543 248.104 69.8555 247.219 70.4805C246.333 71.1055 245.643 71.9258 245.148 72.9414V88H241.535V58H245.148V69.4258ZM281.457 77.668C281.457 80.8971 280.715 83.4948 279.23 85.4609C277.746 87.4141 275.754 88.3906 273.254 88.3906C270.585 88.3906 268.521 87.4466 267.062 85.5586L266.887 88H263.566V58H267.18V69.1914C268.638 67.3815 270.65 66.4766 273.215 66.4766C275.78 66.4766 277.792 67.4466 279.25 69.3867C280.721 71.3268 281.457 73.9831 281.457 77.3555V77.668ZM277.844 77.2578C277.844 74.7969 277.368 72.8958 276.418 71.5547C275.467 70.2135 274.1 69.543 272.316 69.543C269.934 69.543 268.221 70.6497 267.18 72.8633V82.0039C268.286 84.2174 270.012 85.3242 272.355 85.3242C274.087 85.3242 275.435 84.6536 276.398 83.3125C277.362 81.9714 277.844 79.9531 277.844 77.2578ZM299.074 88C298.866 87.5833 298.697 86.8411 298.566 85.7734C296.887 87.5182 294.882 88.3906 292.551 88.3906C290.467 88.3906 288.755 87.8047 287.414 86.6328C286.086 85.4479 285.422 83.9505 285.422 82.1406C285.422 79.9401 286.255 78.2344 287.922 77.0234C289.602 75.7995 291.958 75.1875 294.992 75.1875H298.508V73.5273C298.508 72.2643 298.13 71.2617 297.375 70.5195C296.62 69.7643 295.507 69.3867 294.035 69.3867C292.746 69.3867 291.665 69.7122 290.793 70.3633C289.921 71.0143 289.484 71.8021 289.484 72.7266H285.852C285.852 71.6719 286.223 70.6562 286.965 69.6797C287.72 68.6901 288.736 67.9089 290.012 67.3359C291.301 66.763 292.714 66.4766 294.25 66.4766C296.685 66.4766 298.592 67.0885 299.973 68.3125C301.353 69.5234 302.069 71.1966 302.121 73.332V83.0586C302.121 84.9987 302.368 86.5417 302.863 87.6875V88H299.074ZM293.078 85.2461C294.211 85.2461 295.285 84.9531 296.301 84.3672C297.316 83.7812 298.052 83.0195 298.508 82.082V77.7461H295.676C291.249 77.7461 289.035 79.0417 289.035 81.6328C289.035 82.7656 289.413 83.651 290.168 84.2891C290.923 84.9271 291.893 85.2461 293.078 85.2461ZM316.262 85.4414C317.551 85.4414 318.677 85.0508 319.641 84.2695C320.604 83.4883 321.138 82.5117 321.242 81.3398H324.66C324.595 82.5508 324.178 83.7031 323.41 84.7969C322.642 85.8906 321.613 86.763 320.324 87.4141C319.048 88.0651 317.694 88.3906 316.262 88.3906C313.384 88.3906 311.092 87.4336 309.387 85.5195C307.694 83.5924 306.848 80.9622 306.848 77.6289V77.0234C306.848 74.9661 307.225 73.1367 307.98 71.5352C308.736 69.9336 309.816 68.6901 311.223 67.8047C312.642 66.9193 314.315 66.4766 316.242 66.4766C318.612 66.4766 320.578 67.1862 322.141 68.6055C323.716 70.0247 324.556 71.8672 324.66 74.1328H321.242C321.138 72.7656 320.617 71.6458 319.68 70.7734C318.755 69.888 317.609 69.4453 316.242 69.4453C314.406 69.4453 312.98 70.1094 311.965 71.4375C310.962 72.7526 310.461 74.6602 310.461 77.1602V77.8438C310.461 80.2786 310.962 82.1536 311.965 83.4688C312.967 84.7839 314.4 85.4414 316.262 85.4414ZM334.621 78.2148L332.355 80.5781V88H328.742V58H332.355V76.1445L334.289 73.8203L340.871 66.8672H345.266L337.043 75.6953L346.223 88H341.984L334.621 78.2148ZM369.27 72.7461H377.199V76.1641H369.27V85.1484H365.637V76.1641H357.707V72.7461H365.637V64.4453H369.27V72.7461ZM393.117 88H389.484V63.918L382.199 66.5938V63.3125L392.551 59.4258H393.117V88ZM403.391 65.0312C403.391 63.3255 403.931 61.9193 405.012 60.8125C406.105 59.7057 407.505 59.1523 409.211 59.1523C410.943 59.1523 412.342 59.7122 413.41 60.832C414.491 61.9388 415.031 63.3776 415.031 65.1484V66.5352C415.031 68.2539 414.484 69.6602 413.391 70.7539C412.31 71.8346 410.93 72.375 409.25 72.375C407.557 72.375 406.158 71.8346 405.051 70.7539C403.944 69.6602 403.391 68.2083 403.391 66.3984V65.0312ZM406.086 66.5352C406.086 67.5508 406.372 68.3906 406.945 69.0547C407.518 69.7057 408.286 70.0312 409.25 70.0312C410.174 70.0312 410.917 69.7122 411.477 69.0742C412.049 68.4362 412.336 67.5638 412.336 66.457V65.0312C412.336 64.0156 412.056 63.1758 411.496 62.5117C410.936 61.8477 410.174 61.5156 409.211 61.5156C408.247 61.5156 407.486 61.8477 406.926 62.5117C406.366 63.1758 406.086 64.0417 406.086 65.1094V66.5352ZM417.238 81.0273C417.238 79.3216 417.779 77.9219 418.859 76.8281C419.953 75.7214 421.353 75.168 423.059 75.168C424.764 75.168 426.164 75.7148 427.258 76.8086C428.352 77.9023 428.898 79.3542 428.898 81.1641V82.5508C428.898 84.2565 428.352 85.6628 427.258 86.7695C426.177 87.8633 424.79 88.4102 423.098 88.4102C421.405 88.4102 420.005 87.8698 418.898 86.7891C417.792 85.6953 417.238 84.2435 417.238 82.4336V81.0273ZM419.934 82.5508C419.934 83.5794 420.22 84.4258 420.793 85.0898C421.366 85.7409 422.134 86.0664 423.098 86.0664C424.035 86.0664 424.784 85.7474 425.344 85.1094C425.904 84.4583 426.184 83.5794 426.184 82.4727V81.0273C426.184 79.9987 425.897 79.1589 425.324 78.5078C424.764 77.8568 424.009 77.5312 423.059 77.5312C422.134 77.5312 421.379 77.8568 420.793 78.5078C420.22 79.1458 419.934 80.0117 419.934 81.1055V82.5508ZM410.07 85.8516L408.02 84.5625L421.906 62.3359L423.957 63.625L410.07 85.8516Z" fill="white"/>
<defs>
<filter id="filter0_d" x="95" y="7" width="411" height="223.351" filterUnits="userSpaceOnUse" color-interpolation-filters="sRGB">
<feFlood flood-opacity="0" result="BackgroundImageFix"/>
<feColorMatrix in="SourceAlpha" type="matrix" values="0 0 0 0 0 0 0 0 0 0 0 0 0 0 0 0 0 0 127 0"/>
<feOffset dy="21"/>
<feGaussianBlur stdDeviation="19"/>
<feColorMatrix type="matrix" values="0 0 0 0 0.0901961 0 0 0 0 0.164706 0 0 0 0 0.247059 0 0 0 0.13 0"/>
<feBlend mode="normal" in2="BackgroundImageFix" result="effect1_dropShadow"/>
<feBlend mode="normal" in="SourceGraphic" in2="effect1_dropShadow" result="shape"/>
</filter>
<linearGradient id="paint0_linear" x1="124.804" y1="336.264" x2="124.804" y2="444.584" gradientUnits="userSpaceOnUse">
<stop stop-color="#8FD4FF"/>
<stop offset="1" stop-color="#003CFF"/>
</linearGradient>
<linearGradient id="paint1_linear" x1="467.661" y1="336.264" x2="467.661" y2="444.584" gradientUnits="userSpaceOnUse">
<stop stop-color="#A9A8FF"/>
<stop offset="1" stop-color="#6B69FF"/>
</linearGradient>
<linearGradient id="paint2_linear" x1="467.661" y1="159.184" x2="467.661" y2="267.504" gradientUnits="userSpaceOnUse">
<stop stop-color="#1FA4ED"/>
<stop offset="1" stop-color="#5F83E7"/>
</linearGradient>
<linearGradient id="paint3_linear" x1="243.014" y1="426" x2="243.014" y2="534.32" gradientUnits="userSpaceOnUse">
<stop stop-color="#FFB862"/>
<stop offset="0.981864" stop-color="#F76A1A"/>
</linearGradient>
<linearGradient id="paint4_linear" x1="124.804" y1="159.184" x2="124.804" y2="267.504" gradientUnits="userSpaceOnUse">
<stop stop-color="#F62F53"/>
<stop offset="1" stop-color="#BC313E"/>
</linearGradient>
<linearGradient id="paint5_linear" x1="133" y1="124" x2="465.526" y2="16.3584" gradientUnits="userSpaceOnUse">
<stop stop-color="#1E7AE6"/>
<stop offset="1" stop-color="#2FA5F1"/>
</linearGradient>
<linearGradient id="paint6_linear" x1="327" y1="124" x2="321.436" y2="181.584" gradientUnits="userSpaceOnUse">
<stop stop-color="#1E7AE6"/>
<stop offset="1" stop-color="#2FA5F1"/>
</linearGradient>
</defs>
</svg>
