<svg width="62" height="60" viewBox="0 0 62 60" fill="none" xmlns="http://www.w3.org/2000/svg">
<path d="M46.6072 36.8362L30.9994 48.1759L15.3917 36.8362L21.3533 18.4882L40.6456 18.4882L46.6072 36.8362Z" stroke="white" stroke-width="2" stroke-linejoin="round"/>
<path d="M12.7782 8.87264L30.9996 2.24057L49.2211 8.87264L58.9166 25.6656L55.5494 44.7619L40.6951 57.2262H21.3042L6.44992 44.7619L3.08273 25.6656L12.7782 8.87264Z" stroke="white" stroke-width="2" stroke-linejoin="round"/>
<path d="M49.8244 9.11766L41.0009 18.2353L31.0009 2.05884L21.0009 18.2353L12.7656 9.11766" stroke="white" stroke-width="2" stroke-linejoin="round"/>
<path d="M41.2941 18.2352L59.2353 25.8823L47.1765 36.4705L56.2941 44.9999L31 48.5293L41.2941 57.3529" stroke="white" stroke-width="2" stroke-linejoin="round"/>
<path d="M21.2938 18.2352L3.3526 25.8823L15.4114 36.4705L6.29378 44.9999L31.5879 48.5293L21.2938 57.3529" stroke="white" stroke-width="2" stroke-linejoin="round"/>
<path d="M41.0008 17.941L31.0008 32.3528L21.2949 17.941" stroke="white" stroke-width="2" stroke-linejoin="round"/>
<path d="M14.8242 37.3531L31.0007 32.6472M31.0007 32.6472L47.4713 37.3531M31.0007 32.6472V48.5296" stroke="white" stroke-width="2" stroke-linejoin="round"/>
<circle cx="29.5586" cy="2.5" r="2.5" fill="white"/>
<circle cx="49.793" cy="8.9707" r="2.5" fill="white"/>
<circle r="2.5" transform="matrix(-1 0 0 1 12.207 8.9707)" fill="white"/>
<circle cx="59.2051" cy="26.0293" r="2.5" fill="white"/>
<circle r="2.5" transform="matrix(-1 0 0 1 3.38281 26.0293)" fill="white"/>
<circle cx="45.4414" cy="36.0294" r="2.5" fill="white"/>
<circle r="2.5" transform="matrix(-1 0 0 1 15.1484 36.0294)" fill="white"/>
<circle cx="56.2617" cy="44.2648" r="2.5" fill="white"/>
<circle r="2.5" transform="matrix(-1 0 0 1 6.32422 44.2648)" fill="white"/>
<circle cx="31.5586" cy="48.3826" r="2.5" fill="white"/>
<circle cx="31.1465" cy="32.9116" r="2.5" fill="white"/>
<circle cx="41.5586" cy="56.6176" r="2.5" fill="white"/>
<circle r="2.5" transform="matrix(-1 0 0 1 21.0293 56.6176)" fill="white"/>
<circle cx="40.5586" cy="18.7942" r="2.5" fill="white"/>
<circle r="2.5" transform="matrix(-1 0 0 1 21.0293 18.7942)" fill="white"/>
</svg>
