<svg width="192" height="61" viewBox="0 0 192 61" fill="none" xmlns="http://www.w3.org/2000/svg">
<rect width="192" height="61" fill="#113355"/>
<path d="M57.3711 11.9228H60.1031C60.946 11.9228 61.6798 12.094 62.3045 12.4363C62.9291 12.7787 63.4108 13.258 63.7495 13.8742C64.0882 14.4904 64.2575 15.2017 64.2575 16.0081C64.2575 16.8145 64.0882 17.5258 63.7495 18.1421C63.4108 18.7583 62.9291 19.2376 62.3045 19.5799C61.6798 19.9222 60.946 20.0934 60.1031 20.0934H57.3711V11.9228ZM60.0353 18.6328C60.9084 18.6328 61.5744 18.4007 62.0335 17.9367C62.4926 17.465 62.7222 16.8221 62.7222 16.0081C62.7222 15.1941 62.4926 14.5551 62.0335 14.091C61.5744 13.6193 60.9084 13.3835 60.0353 13.3835H58.8951V18.6328H60.0353Z" fill="white"/>
<path d="M69.7472 20.276C68.957 20.276 68.2382 20.0896 67.591 19.7168C66.9513 19.3365 66.447 18.8191 66.0782 18.1649C65.7095 17.5106 65.5251 16.7917 65.5251 16.0081C65.5251 15.2245 65.7095 14.5056 66.0782 13.8514C66.447 13.1971 66.9513 12.6836 67.591 12.3108C68.2382 11.9304 68.957 11.7402 69.7472 11.7402C70.5375 11.7402 71.2524 11.9304 71.8922 12.3108C72.5394 12.6836 73.0474 13.1971 73.4162 13.8514C73.785 14.5056 73.9694 15.2245 73.9694 16.0081C73.9694 16.7917 73.785 17.5106 73.4162 18.1649C73.0474 18.8191 72.5394 19.3365 71.8922 19.7168C71.2524 20.0896 70.5375 20.276 69.7472 20.276ZM69.7472 18.8153C70.2439 18.8153 70.6993 18.6974 71.1132 18.4616C71.5271 18.2257 71.8508 17.8948 72.0841 17.4688C72.3249 17.0428 72.4453 16.5559 72.4453 16.0081C72.4453 15.4604 72.3249 14.9735 72.0841 14.5475C71.8508 14.1214 71.5271 13.7905 71.1132 13.5547C70.6993 13.3188 70.2439 13.2009 69.7472 13.2009C69.2505 13.2009 68.7952 13.3188 68.3812 13.5547C67.9748 13.7905 67.6512 14.1214 67.4104 14.5475C67.177 14.9735 67.0604 15.4604 67.0604 16.0081C67.0604 16.5559 67.177 17.0428 67.4104 17.4688C67.6512 17.8948 67.9748 18.2257 68.3812 18.4616C68.7952 18.6974 69.2505 18.8153 69.7472 18.8153Z" fill="white"/>
<path d="M74.7944 11.9228H76.4877L77.5941 16.5102L77.7296 17.3661H77.8199L78.0005 16.5102L79.4229 11.9228H80.9244L82.313 16.5102L82.4936 17.3433H82.5839L82.7194 16.5102L83.8144 11.9228H85.5078L83.4193 20.0934H81.7824L80.4051 15.1637L80.2245 14.285H80.1342L79.9535 15.1637L78.5085 20.0934H76.9393L74.7944 11.9228Z" fill="white"/>
<path d="M86.8667 11.9228H88.6391L91.8904 17.4003H91.9807L91.8904 15.8255V11.9228H93.4032V20.0934H91.8001L88.3682 14.3078H88.2779L88.3682 15.8826V20.0934H86.8667V11.9228Z" fill="white"/>
<path d="M95.4712 11.9228H96.9953V18.6328H100.416V20.0934H95.4712V11.9228Z" fill="white"/>
<path d="M105.565 20.276C104.775 20.276 104.056 20.0896 103.409 19.7168C102.769 19.3365 102.265 18.8191 101.896 18.1649C101.527 17.5106 101.343 16.7917 101.343 16.0081C101.343 15.2245 101.527 14.5056 101.896 13.8514C102.265 13.1971 102.769 12.6836 103.409 12.3108C104.056 11.9304 104.775 11.7402 105.565 11.7402C106.356 11.7402 107.07 11.9304 107.71 12.3108C108.357 12.6836 108.865 13.1971 109.234 13.8514C109.603 14.5056 109.787 15.2245 109.787 16.0081C109.787 16.7917 109.603 17.5106 109.234 18.1649C108.865 18.8191 108.357 19.3365 107.71 19.7168C107.07 20.0896 106.356 20.276 105.565 20.276ZM105.565 18.8153C106.062 18.8153 106.517 18.6974 106.931 18.4616C107.345 18.2257 107.669 17.8948 107.902 17.4688C108.143 17.0428 108.263 16.5559 108.263 16.0081C108.263 15.4604 108.143 14.9735 107.902 14.5475C107.669 14.1214 107.345 13.7905 106.931 13.5547C106.517 13.3188 106.062 13.2009 105.565 13.2009C105.069 13.2009 104.613 13.3188 104.199 13.5547C103.793 13.7905 103.469 14.1214 103.228 14.5475C102.995 14.9735 102.878 15.4604 102.878 16.0081C102.878 16.5559 102.995 17.0428 103.228 17.4688C103.469 17.8948 103.793 18.2257 104.199 18.4616C104.613 18.6974 105.069 18.8153 105.565 18.8153Z" fill="white"/>
<path d="M113.505 11.9228H115.255L118.292 20.0934H116.61L115.932 18.1421H112.839L112.162 20.0934H110.48L113.505 11.9228ZM115.436 16.727L114.724 14.673L114.431 13.6916H114.34L114.047 14.673L113.324 16.727H115.436Z" fill="white"/>
<path d="M119.609 11.9228H122.341C123.184 11.9228 123.918 12.094 124.542 12.4363C125.167 12.7787 125.649 13.258 125.987 13.8742C126.326 14.4904 126.495 15.2017 126.495 16.0081C126.495 16.8145 126.326 17.5258 125.987 18.1421C125.649 18.7583 125.167 19.2376 124.542 19.5799C123.918 19.9222 123.184 20.0934 122.341 20.0934H119.609V11.9228ZM122.273 18.6328C123.146 18.6328 123.812 18.4007 124.271 17.9367C124.73 17.465 124.96 16.8221 124.96 16.0081C124.96 15.1941 124.73 14.5551 124.271 14.091C123.812 13.6193 123.146 13.3835 122.273 13.3835H121.133V18.6328H122.273Z" fill="white"/>
<path d="M132.968 11.9228H134.718L137.755 20.0934H136.073L135.396 18.1421H132.302L131.625 20.0934H129.943L132.968 11.9228ZM134.899 16.727L134.188 14.673L133.894 13.6916H133.804L133.51 14.673L132.788 16.727H134.899Z" fill="white"/>
<path d="M139.072 11.9228H141.917C142.429 11.9228 142.895 12.0331 143.317 12.2537C143.738 12.4668 144.07 12.7711 144.31 13.1667C144.551 13.5547 144.672 13.9997 144.672 14.5018C144.672 15.0039 144.551 15.4528 144.31 15.8484C144.07 16.244 143.738 16.5521 143.317 16.7727C142.895 16.9857 142.429 17.0922 141.917 17.0922H140.596V20.0934H139.072V11.9228ZM141.962 15.6315C142.339 15.6315 142.632 15.5212 142.843 15.3006C143.061 15.08 143.17 14.8137 143.17 14.5018C143.17 14.1899 143.061 13.9274 142.843 13.7144C142.632 13.4938 142.339 13.3835 141.962 13.3835H140.596V15.6315H141.962Z" fill="white"/>
<path d="M146.188 11.9228H147.712V15.4261H147.803L150.76 11.9228H152.601V12.0141L149.677 15.3919L152.905 20.0021V20.0934H151.043L148.627 16.6129L147.712 17.697V20.0934H146.188V11.9228Z" fill="white"/>
<path d="M164.444 20.1619C164.173 20.1619 163.94 20.0668 163.744 19.8766C163.556 19.6788 163.462 19.443 163.462 19.1691C163.462 18.8952 163.556 18.6632 163.744 18.473C163.94 18.2828 164.173 18.1877 164.444 18.1877C164.715 18.1877 164.945 18.2828 165.133 18.473C165.328 18.6632 165.426 18.8952 165.426 19.1691C165.426 19.443 165.328 19.6788 165.133 19.8766C164.945 20.0668 164.715 20.1619 164.444 20.1619Z" fill="white"/>
<path d="M170.09 20.276C169.443 20.276 168.875 20.101 168.385 19.7511C167.896 19.3935 167.516 18.9066 167.245 18.2904C166.982 17.6666 166.85 16.9667 166.85 16.1907C166.85 15.4147 166.982 14.7186 167.245 14.1024C167.516 13.4786 167.896 12.9917 168.385 12.6417C168.875 12.2842 169.443 12.1054 170.09 12.1054C170.737 12.1054 171.306 12.2842 171.795 12.6417C172.284 12.9917 172.66 13.4786 172.924 14.1024C173.195 14.7186 173.33 15.4147 173.33 16.1907C173.33 16.9667 173.195 17.6666 172.924 18.2904C172.66 18.9066 172.284 19.3935 171.795 19.7511C171.306 20.101 170.737 20.276 170.09 20.276ZM170.09 18.8724C170.451 18.8724 170.764 18.7583 171.027 18.53C171.298 18.2942 171.501 17.9747 171.637 17.5715C171.78 17.1607 171.851 16.7004 171.851 16.1907C171.851 15.3995 171.693 14.7567 171.377 14.2622C171.061 13.7601 170.632 13.509 170.09 13.509C169.556 13.509 169.131 13.7601 168.814 14.2622C168.498 14.7643 168.34 15.4071 168.34 16.1907C168.34 16.7004 168.408 17.1607 168.543 17.5715C168.686 17.9747 168.89 18.2942 169.153 18.53C169.424 18.7583 169.736 18.8724 170.09 18.8724Z" fill="white"/>
<path d="M180 17.6628H178.069V19.6027H176.76V17.6628H174.841V16.339H176.76V14.3991H178.069V16.339H180V17.6628Z" fill="white"/>
<path d="M64.7175 27.8517H68.4441L76.2758 48.9234H72.6657L70.8024 43.5378H62.3883L60.4959 48.9234H56.8857L64.7175 27.8517ZM69.696 40.4771L67.4833 34.2086L66.6681 31.7659H66.4934L65.6782 34.2086L63.4656 40.4771H69.696Z" fill="white"/>
<path d="M78.5843 33.9143H81.6413V35.886H81.7868C82.2139 35.1797 82.8447 34.6009 83.6793 34.1497C84.5333 33.6788 85.4358 33.4434 86.3869 33.4434C88.192 33.4434 89.5603 33.9829 90.492 35.062C91.4431 36.1215 91.9186 37.5733 91.9186 39.4176V48.9234H88.716V39.8591C88.716 38.6819 88.4249 37.8186 87.8426 37.2692C87.2797 36.7199 86.4936 36.4452 85.4844 36.4452C84.7662 36.4452 84.1257 36.6512 83.5628 37.0632C82.9999 37.4556 82.5632 37.9854 82.2527 38.6524C81.9421 39.3195 81.7868 40.0356 81.7868 40.8008V48.9234H78.5843V33.9143Z" fill="white"/>
<path d="M101.877 49.3943C100.537 49.3943 99.3242 49.0509 98.2373 48.3642C97.1504 47.6776 96.2866 46.7358 95.6461 45.539C95.025 44.3226 94.7145 42.9492 94.7145 41.4188C94.7145 39.8885 95.025 38.5249 95.6461 37.3281C96.2866 36.1117 97.1504 35.1601 98.2373 34.4734C99.3242 33.7867 100.537 33.4434 101.877 33.4434C102.925 33.4434 103.866 33.6788 104.701 34.1497C105.535 34.6206 106.166 35.1994 106.593 35.886H106.739L106.593 33.7671V27.8517H109.796V48.9234H106.739V46.981H106.593C106.166 47.6481 105.535 48.2171 104.701 48.688C103.866 49.1588 102.925 49.3943 101.877 49.3943ZM102.342 46.4219C103.119 46.4219 103.837 46.2159 104.497 45.8039C105.176 45.3918 105.72 44.8033 106.127 44.0381C106.535 43.2729 106.739 42.3998 106.739 41.4188C106.739 40.4378 106.535 39.5746 106.127 38.829C105.72 38.0638 105.176 37.4753 104.497 37.0632C103.837 36.6512 103.119 36.4452 102.342 36.4452C101.566 36.4452 100.838 36.6512 100.159 37.0632C99.4795 37.4753 98.936 38.0638 98.5284 38.829C98.1208 39.5746 97.917 40.4378 97.917 41.4188C97.917 42.3998 98.1208 43.2729 98.5284 44.0381C98.936 44.8033 99.4795 45.3918 100.159 45.8039C100.838 46.2159 101.566 46.4219 102.342 46.4219Z" fill="white"/>
<path d="M113.527 33.9143H116.584V36.1215H116.73C117.06 35.3563 117.632 34.7285 118.447 34.238C119.263 33.7279 120.126 33.4728 121.039 33.4728C121.757 33.4728 122.358 33.5709 122.844 33.7671V37.1221C121.99 36.8082 121.223 36.6512 120.544 36.6512C119.806 36.6512 119.146 36.8474 118.564 37.2398C118.001 37.6322 117.555 38.1619 117.225 38.829C116.895 39.4765 116.73 40.1926 116.73 40.9774V48.9234H113.527V33.9143Z" fill="white"/>
<path d="M131.375 49.3943C129.88 49.3943 128.541 49.0509 127.357 48.3642C126.173 47.6579 125.251 46.6966 124.591 45.4801C123.931 44.2637 123.601 42.9099 123.601 41.4188C123.601 39.9277 123.931 38.574 124.591 37.3575C125.251 36.1411 126.173 35.1895 127.357 34.5029C128.541 33.7965 129.88 33.4434 131.375 33.4434C132.869 33.4434 134.209 33.7965 135.393 34.5029C136.577 35.2092 137.498 36.1705 138.158 37.387C138.818 38.6034 139.148 39.9473 139.148 41.4188C139.148 42.9099 138.818 44.2637 138.158 45.4801C137.498 46.6966 136.577 47.6579 135.393 48.3642C134.209 49.0509 132.869 49.3943 131.375 49.3943ZM131.375 46.4219C132.19 46.4219 132.947 46.2257 133.646 45.8333C134.344 45.4213 134.898 44.8425 135.305 44.0969C135.732 43.3318 135.946 42.4391 135.946 41.4188C135.946 40.3986 135.732 39.5157 135.305 38.7702C134.898 38.0246 134.344 37.4556 133.646 37.0632C132.947 36.6512 132.19 36.4452 131.375 36.4452C130.56 36.4452 129.803 36.6512 129.104 37.0632C128.405 37.4556 127.842 38.0246 127.415 38.7702C127.008 39.5157 126.804 40.3986 126.804 41.4188C126.804 42.4391 127.008 43.3318 127.415 44.0969C127.842 44.8425 128.405 45.4213 129.104 45.8333C129.803 46.2257 130.56 46.4219 131.375 46.4219Z" fill="white"/>
<path d="M143.651 31.7365C143.049 31.7365 142.535 31.5304 142.108 31.1184C141.7 30.6868 141.497 30.1669 141.497 29.5587C141.497 28.9504 141.7 28.4403 142.108 28.0283C142.535 27.5967 143.049 27.3809 143.651 27.3809C144.253 27.3809 144.757 27.5967 145.165 28.0283C145.592 28.4403 145.805 28.9504 145.805 29.5587C145.805 30.1669 145.592 30.6868 145.165 31.1184C144.757 31.5304 144.253 31.7365 143.651 31.7365ZM142.05 33.9143H145.252V48.9234H142.05V33.9143Z" fill="white"/>
<path d="M155.442 49.3943C154.103 49.3943 152.89 49.0509 151.803 48.3642C150.716 47.6776 149.852 46.7358 149.212 45.539C148.591 44.3226 148.28 42.9492 148.28 41.4188C148.28 39.8885 148.591 38.5249 149.212 37.3281C149.852 36.1117 150.716 35.1601 151.803 34.4734C152.89 33.7867 154.103 33.4434 155.442 33.4434C156.49 33.4434 157.432 33.6788 158.266 34.1497C159.101 34.6206 159.732 35.1994 160.159 35.886H160.304L160.159 33.7671V27.8517H163.361V48.9234H160.304V46.981H160.159C159.732 47.6481 159.101 48.2171 158.266 48.688C157.432 49.1588 156.49 49.3943 155.442 49.3943ZM155.908 46.4219C156.684 46.4219 157.403 46.2159 158.063 45.8039C158.742 45.3918 159.285 44.8033 159.693 44.0381C160.101 43.2729 160.304 42.3998 160.304 41.4188C160.304 40.4378 160.101 39.5746 159.693 38.829C159.285 38.0638 158.742 37.4753 158.063 37.0632C157.403 36.6512 156.684 36.4452 155.908 36.4452C155.132 36.4452 154.404 36.6512 153.725 37.0632C153.045 37.4753 152.502 38.0638 152.094 38.829C151.687 39.5746 151.483 40.4378 151.483 41.4188C151.483 42.3998 151.687 43.2729 152.094 44.0381C152.502 44.8033 153.045 45.3918 153.725 45.8039C154.404 46.2159 155.132 46.4219 155.908 46.4219Z" fill="white"/>
<path d="M15.3154 23.9678C14.026 23.9678 13 25.0049 13 26.3082V36.0572C13 37.3606 14.026 38.3977 15.3154 38.3977C16.6048 38.3977 17.6308 37.3606 17.6308 36.0572V26.3082C17.6308 25.0049 16.6048 23.9678 15.3154 23.9678ZM42.3199 23.9678C41.0305 23.9678 40.0045 25.0049 40.0045 26.3082V36.0572C40.0045 37.3606 41.0305 38.3977 42.3199 38.3977C43.6093 38.3977 44.6353 37.3606 44.6353 36.0572V26.3082C44.6353 25.0049 43.6093 23.9678 42.3199 23.9678Z" fill="#A4C639"/>
<path d="M24.957 35.0928C23.6676 35.0928 22.6416 36.1299 22.6416 37.4333V47.1823C22.6416 48.4857 23.6676 49.5228 24.957 49.5228C26.2464 49.5228 27.2724 48.4857 27.2724 47.1823V37.4333C27.2724 36.1299 26.2464 35.0928 24.957 35.0928ZM32.6726 35.0928C31.3832 35.0928 30.3572 36.1299 30.3572 37.4333V47.1823C30.3572 48.4857 31.3832 49.5228 32.6726 49.5228C33.962 49.5228 34.988 48.4857 34.988 47.1823V37.4333C34.988 36.1299 33.962 35.0928 32.6726 35.0928Z" fill="#A4C639"/>
<path fill-rule="evenodd" clip-rule="evenodd" d="M22.2497 11.7276C22.3 11.6994 22.351 11.6852 22.4057 11.6846C22.5229 11.6835 22.634 11.7426 22.6965 11.8566L24.3488 14.8674C25.7005 14.2613 27.2166 13.9211 28.8165 13.9211C30.4164 13.9211 31.9325 14.2613 33.2841 14.8674L34.9365 11.8566C34.999 11.7426 35.11 11.6834 35.2272 11.6846C35.2819 11.6851 35.3329 11.6994 35.3832 11.7276C35.5483 11.8201 35.6026 12.0119 35.5109 12.1792L33.8798 15.1577C37.0179 16.8082 39.1375 19.9449 39.1417 23.5447H18.4912C18.4955 19.9449 20.6151 16.8082 23.7531 15.1577L22.1221 12.1792C22.0303 12.0119 22.0846 11.8201 22.2497 11.7276ZM18.4912 39.498V24.3691H39.1417V39.498C39.1417 40.8959 38.0284 42.0212 36.6455 42.0212H20.9874C19.6045 42.0212 18.4912 40.8959 18.4912 39.498ZM23.1896 18.8533C23.1896 18.3768 23.5799 17.9824 24.0513 17.9824C24.5227 17.9824 24.9129 18.3768 24.9129 18.8533C24.9129 19.3299 24.5227 19.7243 24.0513 19.7243C23.5799 19.7243 23.1896 19.3299 23.1896 18.8533ZM32.7206 18.8533C32.7206 18.3768 33.1108 17.9824 33.5822 17.9824C34.0536 17.9824 34.4439 18.3768 34.4439 18.8533C34.4439 19.3299 34.0536 19.7243 33.5822 19.7243C33.1108 19.7243 32.7206 19.3299 32.7206 18.8533Z" fill="#A4C639"/>
<path d="M164 12.8901L160.714 20H158.934L162.226 13.2857H158V12H164V12.8901Z" fill="white"/>
</svg>
