<svg width="136" height="43" viewBox="0 0 136 43" fill="none" xmlns="http://www.w3.org/2000/svg">
<path d="M131.75 42.5H4.25C1.9125 42.5 0 40.5875 0 38.25V4.25C0 1.9125 1.9125 0 4.25 0H131.75C134.087 0 136 1.9125 136 4.25V38.25C136 40.5875 134.087 42.5 131.75 42.5Z" fill="#113355"/>
<path fill-rule="evenodd" clip-rule="evenodd" d="M10.4121 20.825V9.66875C10.4121 9.03125 10.9434 8.5 11.4746 8.5C12.0059 8.5 12.2184 8.60625 12.5371 8.81875L33.0434 20.0813C33.4684 20.2938 33.6809 20.6125 33.6809 20.9312C33.6809 21.25 33.4684 21.5687 33.0434 21.7812L12.5371 33.0437C12.3246 33.15 12.0059 33.3625 11.4746 33.3625C10.9434 33.3625 10.4121 32.8312 10.4121 32.1937V20.825Z" fill="url(#paint0_linear)"/>
<path fill-rule="evenodd" clip-rule="evenodd" d="M23.691 20.9312L11.2598 8.5C11.366 8.5 11.366 8.5 11.4723 8.5C12.0035 8.5 12.216 8.60625 12.5348 8.81875L27.6223 17.1062L23.691 20.9312Z" fill="url(#paint1_linear)"/>
<path fill-rule="evenodd" clip-rule="evenodd" d="M27.5184 24.6503L23.6934 20.8253L27.6246 16.894L33.0434 19.869C33.4684 20.0815 33.6809 20.4003 33.6809 20.719C33.6809 21.0378 33.4684 21.3565 33.0434 21.569L27.5184 24.6503Z" fill="url(#paint2_linear)"/>
<path fill-rule="evenodd" clip-rule="evenodd" d="M11.3691 33.1497L23.6941 20.8247L27.5191 24.6497L12.5379 32.831C12.2191 33.0435 12.0066 33.1497 11.3691 33.1497C11.4754 33.1497 11.4754 33.1497 11.3691 33.1497Z" fill="url(#paint3_linear)"/>
<path fill-rule="evenodd" clip-rule="evenodd" d="M75.5438 36.0187C75.0125 35.5938 74.5875 34.85 74.375 34.425L76.075 33.6812C76.1813 33.8937 76.3938 34.2125 76.6063 34.5312C77.0313 34.9562 77.6688 35.3812 78.3063 35.3812C78.9438 35.3812 79.6875 35.0625 80.1125 34.5312C80.4313 34 80.6438 33.4687 80.6438 32.725V32.0875C79.3688 33.6812 76.7125 33.4688 75.225 31.7688C73.6313 30.0688 73.6313 27.2 75.225 25.5C76.8188 23.9062 79.1563 23.6938 80.5375 25.1813V24.4375H82.3438V32.4062C82.3438 34.425 81.6 35.5937 80.6438 36.3375C80.0063 36.8687 79.05 37.0812 78.2 37.0812C77.2438 36.975 76.2875 36.6562 75.5438 36.0187ZM120.063 36.4437L121.869 32.1937L118.681 24.8625H120.488L122.719 30.0687L124.95 24.8625H126.756L121.869 36.4437H120.063ZM111.456 32.4062C110.925 31.875 110.713 31.1312 110.713 30.3875C110.713 29.75 110.925 29.1125 111.35 28.6875C112.094 27.9437 113.156 27.625 114.325 27.625C115.069 27.625 115.706 27.7313 116.238 28.05C116.238 26.775 115.175 26.2438 114.325 26.2438C113.581 26.2438 112.838 26.6687 112.519 27.4125L110.925 26.775C111.244 26.0312 112.094 24.65 114.219 24.65C115.281 24.65 116.344 24.9688 116.981 25.7125C117.619 26.4563 117.831 27.3062 117.831 28.475V32.9375H116.025V32.1937C115.813 32.5125 115.388 32.725 115.069 32.9375C114.644 33.15 114.113 33.2562 113.581 33.2562C112.944 33.15 111.988 32.9375 111.456 32.4062ZM54.825 28.5813C54.825 26.4563 56.4188 24.1188 59.2875 24.1188C62.05 24.1188 63.75 26.4563 63.75 28.5813C63.75 30.7063 62.1563 33.0437 59.2875 33.0437C56.4188 33.0437 54.825 30.7063 54.825 28.5813ZM64.3875 28.5813C64.3875 26.4563 65.9813 24.1188 68.85 24.1188C71.6125 24.1188 73.3125 26.4563 73.3125 28.5813C73.3125 30.7063 71.7188 33.0437 68.85 33.0437C66.0875 33.0437 64.3875 30.7063 64.3875 28.5813ZM42.8188 30.9187C40.1625 28.2625 40.2688 23.9063 42.925 21.1438C44.3063 19.7625 46.0063 19.125 47.8125 19.125C49.5125 19.125 51.2125 19.7625 52.4875 21.0375L51.2125 22.4187C49.3 20.5062 46.2188 20.6125 44.4125 22.525C42.5 24.5438 42.5 27.625 44.4125 29.6438C46.325 31.6625 49.5125 31.7687 51.425 29.75C52.0625 29.1125 52.275 28.2625 52.3813 27.4125H47.9188V25.5H54.1875C54.2938 25.925 54.2938 26.4563 54.2938 26.9875C54.2938 28.5813 53.6563 30.175 52.5938 31.2375C51.425 32.4062 49.725 33.0437 48.025 33.0437C46.1125 32.9375 44.2 32.3 42.8188 30.9187ZM87.7625 31.6625C86.1688 29.9625 86.1688 27.0937 87.7625 25.2875C89.3563 23.5875 92.0125 23.5875 93.5 25.2875C94.0313 25.8187 94.35 26.5625 94.6688 27.3062L88.825 29.75C89.1438 30.4937 89.8875 31.1312 90.95 31.1312C91.9063 31.1312 92.5438 30.8125 93.1813 29.8562L94.775 30.9187C94.5625 31.1312 94.35 31.3437 94.2438 31.5562C92.4375 33.3625 89.3563 33.3625 87.7625 31.6625ZM98.8125 32.9375V21.1438H102.638C104.869 21.1438 106.675 22.7375 106.675 24.65C106.675 26.5625 105.081 28.1562 103.063 28.1562H100.725V32.8313H98.8125V32.9375ZM107.738 32.9375V21.1438H109.544V32.9375H107.738ZM83.725 32.725V19.55H85.6375V32.725H83.725ZM116.131 29.4312C115.706 29.1125 115.069 29.0062 114.431 29.0062C113.156 29.0062 112.413 29.6437 112.413 30.3875C112.413 31.1312 113.156 31.5562 113.9 31.5562C114.963 31.5562 116.131 30.7062 116.131 29.4312ZM61.7313 28.5813C61.7313 27.3063 60.8813 25.925 59.2875 25.925C57.6938 25.925 56.8438 27.3063 56.8438 28.5813C56.8438 29.8563 57.6938 31.2375 59.2875 31.2375C60.775 31.2375 61.7313 29.8563 61.7313 28.5813ZM71.2938 28.5813C71.2938 27.3063 70.4438 25.925 68.85 25.925C67.2563 25.925 66.4063 27.3063 66.4063 28.5813C66.4063 29.8563 67.2563 31.2375 68.85 31.2375C70.4438 31.2375 71.2938 29.8563 71.2938 28.5813ZM80.75 29.325C80.75 29.2187 80.75 29.1125 80.8563 29.0062C80.8563 28.9 80.8563 28.6875 80.8563 28.5813C80.8563 28.475 80.8563 28.2625 80.8563 28.1562V28.05C80.8563 27.9438 80.75 27.7312 80.75 27.625C80.4313 26.5625 79.475 25.8187 78.5188 25.8187C77.2438 25.8187 76.1813 27.0937 76.1813 28.475C76.1813 29.9625 77.2438 31.1312 78.625 31.1312C79.475 31.2375 80.325 30.4937 80.75 29.325ZM88.5063 28.3687L92.4375 26.6687C92.0125 25.925 91.375 25.7125 90.8438 25.7125C89.25 25.8187 88.2938 27.5188 88.5063 28.3687ZM104.763 24.7562C104.763 23.6937 103.913 22.95 102.744 22.95H100.619V26.6687H102.85C103.913 26.6687 104.763 25.8187 104.763 24.7562Z" fill="white"/>
<path fill-rule="evenodd" clip-rule="evenodd" d="M121.442 34.3164H121.338V34.2125H121.442H121.338V34.3164H121.442Z" fill="white"/>
<path fill-rule="evenodd" clip-rule="evenodd" d="M121.658 34.3164C121.658 34.2125 121.658 34.2125 121.658 34.3164C121.554 34.2125 121.554 34.2125 121.658 34.3164C121.554 34.3164 121.554 34.3164 121.658 34.3164ZM121.658 34.2125C121.658 34.3164 121.658 34.3164 121.658 34.2125C121.658 34.3164 121.554 34.3164 121.658 34.2125C121.554 34.2125 121.658 34.2125 121.658 34.2125Z" fill="white"/>
<path fill-rule="evenodd" clip-rule="evenodd" d="M121.76 34.2125H121.656H121.76V34.3164V34.2125Z" fill="white"/>
<path d="M41.334 10.7313C41.334 8.81877 42.7152 7.65002 44.4152 7.65002C45.584 7.65002 46.3277 8.18127 46.859 8.92502L46.009 9.45627C45.6902 9.03127 45.159 8.71252 44.4152 8.71252C43.2465 8.71252 42.3965 9.56252 42.3965 10.8375C42.3965 12.1125 43.2465 12.9625 44.4152 12.9625C45.0527 12.9625 45.584 12.6438 45.7965 12.4313V11.475H44.0965V10.5188H46.9652V12.75C46.434 13.3875 45.584 13.8125 44.5215 13.8125C42.7152 13.8125 41.334 12.5375 41.334 10.7313Z" fill="white"/>
<path d="M48.2402 13.7062V7.75623H52.2777V8.71248H49.1965V10.2H52.1715V11.1562H49.1965V12.8562H52.2777V13.8125L48.2402 13.7062Z" fill="white"/>
<path d="M55.2496 13.7062V8.71248H53.4434V7.75623H58.1184V8.71248H56.3121V13.7062H55.2496Z" fill="white"/>
<path d="M61.7285 13.7062V7.75623H62.791V13.7062H61.7285Z" fill="white"/>
<path d="M65.6598 13.7062V8.71248H63.8535V7.75623H68.5285V8.71248H66.7223V13.7062H65.6598Z" fill="white"/>
<path d="M71.9316 10.7313C71.9316 8.92502 73.2067 7.65002 75.0129 7.65002C76.8191 7.65002 78.0941 8.92502 78.0941 10.7313C78.0941 12.5375 76.8191 13.8125 75.0129 13.8125C73.2067 13.8125 71.9316 12.4313 71.9316 10.7313ZM76.9254 10.7313C76.9254 9.45627 76.1816 8.60627 74.9066 8.60627C73.7379 8.60627 72.8879 9.56252 72.8879 10.7313C72.8879 12.0063 73.6316 12.8563 74.9066 12.8563C76.1816 12.8563 76.9254 11.9 76.9254 10.7313Z" fill="white"/>
<path d="M83.4035 13.7062L80.3223 9.45623V13.7062H79.2598V7.75623H80.3223L83.4035 11.9V7.75623H84.466V13.7062H83.4035Z" fill="white"/>
<defs>
<linearGradient id="paint0_linear" x1="17.2837" y1="6.98445" x2="23.2318" y2="31.4123" gradientUnits="userSpaceOnUse">
<stop stop-color="#006884"/>
<stop offset="1" stop-color="#8AD1D0"/>
</linearGradient>
<linearGradient id="paint1_linear" x1="10.028" y1="10.459" x2="26.2375" y2="19.222" gradientUnits="userSpaceOnUse">
<stop stop-color="#24BBB6"/>
<stop offset="1" stop-color="#DBE692"/>
</linearGradient>
<linearGradient id="paint2_linear" x1="28.6812" y1="25.0966" x2="28.6812" y2="16.6515" gradientUnits="userSpaceOnUse">
<stop stop-color="#FCC072"/>
<stop offset="1" stop-color="#F58A5B"/>
</linearGradient>
<linearGradient id="paint3_linear" x1="13.1698" y1="35.3481" x2="25.9747" y2="22.3164" gradientUnits="userSpaceOnUse">
<stop stop-color="#712B8F"/>
<stop offset="1" stop-color="#EA1D27"/>
</linearGradient>
</defs>
</svg>
