<svg width="97" height="123" viewBox="0 0 97 123" fill="none" xmlns="http://www.w3.org/2000/svg">
<path d="M48.2143 3C30.1554 17.33 18.8357 18 0 18V75.675C0 98.69 17.1589 104.695 48.2143 123C79.2696 104.695 96.4286 98.69 96.4286 75.675V18C77.5928 18 66.2732 17.33 48.2143 3Z" fill="#BFDEFF"/>
<rect x="25.8462" y="60.231" width="44.3077" height="34.1538" fill="white"/>
<path d="M62.7688 61.1538V52.0653C62.7688 43.8299 56.1564 37.1538 47.9996 37.1538C39.8428 37.1538 33.2303 43.8299 33.2303 52.0653V61.1538" stroke="#3692FE" stroke-width="3"/>
<mask id="path-4-inside-1_3679_3634" fill="white">
<path d="M24.3097 59.0601H71.6907V95.7034H24.3097V59.0601Z"/>
</mask>
<path d="M24.3097 59.0601V56.0601H21.3097V59.0601H24.3097ZM71.6907 59.0601H74.6907V56.0601H71.6907V59.0601ZM71.6907 95.7034V98.7034H74.6907V95.7034H71.6907ZM24.3097 95.7034H21.3097V98.7034H24.3097V95.7034ZM24.3097 62.0601H71.6907V56.0601H24.3097V62.0601ZM68.6907 59.0601V95.7034H74.6907V59.0601H68.6907ZM71.6907 92.7034H24.3097V98.7034H71.6907V92.7034ZM27.3097 95.7034V59.0601H21.3097V95.7034H27.3097Z" fill="#3692FE" mask="url(#path-4-inside-1_3679_3634)"/>
<path fill-rule="evenodd" clip-rule="evenodd" d="M49.9865 80.4904C51.4001 79.7671 52.3677 78.2962 52.3677 76.5992C52.3677 74.1867 50.412 72.231 47.9995 72.231C45.587 72.231 43.6312 74.1867 43.6312 76.5992C43.6312 78.2973 44.6002 79.7692 46.0154 80.4919V86.9249H49.9865V80.4904Z" fill="#3692FE"/>
<path d="M0 23.5386C18.8357 23.5386 30.1554 22.8686 48.2143 8.53857C66.2732 22.8686 77.5929 23.5386 96.4286 23.5386" stroke="white" stroke-width="12"/>
<path d="M0 30C18.8357 30 30.1554 29.33 48.2143 15C66.2732 29.33 77.5929 30 96.4286 30" stroke="#3692FE" stroke-width="3"/>
</svg>
