<svg width="121" height="120" viewBox="0 0 121 120" fill="none" xmlns="http://www.w3.org/2000/svg">
    <path fill-rule="evenodd" clip-rule="evenodd" d="M60.1374 120C93.1994 120 120.001 93.1984 120.001 60.1364C120.001 27.0745 93.1994 0.272461 60.1374 0.272461C27.0754 0.272461 0.273438 27.0745 0.273438 60.1364C0.273438 93.1984 27.0754 120 60.1374 120ZM59.7208 97.1348C80.3845 97.1348 97.1357 80.3835 97.1357 59.7198C97.1357 39.0561 80.3845 22.3048 59.7208 22.3048C39.057 22.3048 22.3058 39.0561 22.3058 59.7198C22.3058 80.3835 39.057 97.1348 59.7208 97.1348Z" fill="white"/>
    <path d="M60.8623 109.932C19.8028 109.932 7.78533 81.5574 2.27734 66.3687C5.2817 83.3933 21.2048 117.443 60.8623 117.443C100.52 117.443 115.775 83.3933 118.446 66.3687C113.272 81.5574 99.919 109.932 60.8623 109.932Z" fill="#BFDEFF"/>
    <circle cx="59.863" cy="56.8547" r="41.5603" fill="#BFDEFF"/>
    <circle cx="59.864" cy="59.864" r="58.364" stroke="#3692FE" stroke-width="3"/>
    <circle cx="59.8642" cy="59.8632" r="35.915" stroke="#3692FE" stroke-width="3"/>
    <path d="M96.5234 13.5977L79.8937 30.2274M105.594 22.6684L88.9645 39.2981" stroke="#3692FE" stroke-width="3"/>
    <path d="M30.7637 79.3594L14.1339 95.9891M39.8344 88.4301L23.2047 105.06" stroke="#3692FE" stroke-width="3"/>
    <path d="M105.596 95.9907L88.966 79.361M96.5249 105.061L79.8952 88.4318" stroke="#3692FE" stroke-width="3"/>
    <path d="M39.8359 30.2275L23.2062 13.5978M30.7652 39.2983L14.1354 22.6686" stroke="#3692FE" stroke-width="3"/>
</svg>