<svg width="154" height="122" viewBox="0 0 154 122" fill="none" xmlns="http://www.w3.org/2000/svg">
    <path fill-rule="evenodd" clip-rule="evenodd" d="M33.0879 52L15.0879 102.5C18.9212 105.333 36.7879 111 77.5879 111C77.6594 111 77.7307 111 77.8018 111C77.8728 111 77.9441 111 78.0156 111C118.816 111 136.682 105.333 140.516 102.5L122.516 52H84.5156C82.3544 54.2176 80.0793 56.6852 77.8018 59.3182C75.5243 56.6852 73.2491 54.2176 71.0879 52H33.0879Z" fill="#BFDEFF"/>
    <path d="M45.0877 82.9859C38.0875 53.4718 45.0877 46.0986 45.0877 46.0986C45.0877 46.0986 54.7215 39 76.7778 39C101.116 39 108.468 46.0986 108.468 46.0986C108.468 46.0986 114.848 55.9718 108.468 82.9859C102.088 110 76.651 120 76.651 120C76.651 120 52.0879 112.5 45.0877 82.9859Z" fill="white"/>
    <path d="M45.0877 82.9859C38.0875 53.4718 45.0877 46.0986 45.0877 46.0986C45.0877 46.0986 54.7215 39 76.7778 39C101.116 39 108.468 46.0986 108.468 46.0986C108.468 46.0986 114.848 55.9718 108.468 82.9859C102.088 110 76.651 120 76.651 120C76.651 120 52.0879 112.5 45.0877 82.9859Z" stroke="#3692FE" stroke-width="3"/>
    <path d="M77.0879 71L72.0879 84.5H80.5879L82.0879 81.5" stroke="#3692FE" stroke-width="3"/>
    <path d="M52.1855 84C54.8475 87.7606 57.0879 95.2817 67.0165 95.2817C72.4926 95.2817 75.9743 90.9718 77.0306 88.8169C77.8334 90.9718 80.9602 95.2817 87.0447 95.2817C95.5879 95.2817 99.7208 87.7606 102.256 84" stroke="#3692FE" stroke-width="3" stroke-linejoin="bevel"/>
    <path d="M76.5234 106.817V119.873" stroke="#3692FE" stroke-width="3"/>
    <ellipse cx="77.0882" cy="52.7792" rx="75.0882" ry="21.2206" fill="#BFDEFF"/>
    <path d="M39 44.6177L48.4586 7.61768H105.211L113 44.6177H39Z" fill="#BFDEFF"/>
    <ellipse cx="77.089" cy="8.16177" rx="28.2941" ry="8.16177" fill="white"/>
    <path d="M152.176 52.7793C152.176 64.4991 118.558 73.9999 77.0882 73.9999C35.6181 73.9999 2 64.4991 2 52.7793" stroke="#3692FE" stroke-width="3"/>
    <path d="M112.088 33C112.088 38.5228 96.4179 43 77.0879 43C57.7579 43 42.0879 38.5228 42.0879 33" stroke="#3692FE" stroke-width="3"/>
</svg>