<svg width="86" height="86" viewBox="0 0 86 86" fill="none" xmlns="http://www.w3.org/2000/svg">
    <rect width="86" height="86" rx="6" fill="white"/>
    <path fill-rule="evenodd" clip-rule="evenodd" d="M50.8115 25.3085C52.633 23.109 53.8555 20.0528 53.5212 17C50.9072 17.1027 47.7291 18.7484 45.8588 20.9392C44.18 22.8913 42.7085 25.9998 43.0986 28.9847C46.0172 29.2111 48.9986 27.5044 50.8115 25.3085ZM64.3408 55.1431C64.2764 55.3207 63.2454 58.875 60.736 62.5338C58.5749 65.705 56.3214 68.8657 52.7758 68.9284C49.2999 68.9963 48.1801 66.8665 44.1992 66.8665C40.2199 66.8665 38.9765 68.8657 35.6817 68.9963C32.258 69.1304 29.6615 65.5709 27.4725 62.4154C23.0022 55.9598 19.5959 44.1684 24.1707 36.217C26.452 32.2639 30.5148 29.7666 34.9311 29.6987C38.2956 29.643 41.4616 31.9574 43.5148 31.9574C45.5697 31.9574 49.4165 29.1589 53.4689 29.5698C55.1581 29.6465 59.9193 30.2542 62.9807 34.728C62.7282 34.8882 57.2984 38.0437 57.3576 44.6247C57.4255 52.4926 64.2607 55.1117 64.3408 55.1431Z" fill="#3C3C3C"/>
</svg>