<svg width="136" height="43" viewBox="0 0 136 43" fill="none" xmlns="http://www.w3.org/2000/svg">
<path d="M131.75 42.5H4.25C1.9125 42.5 0 40.5875 0 38.25V4.25C0 1.9125 1.9125 0 4.25 0H131.75C134.087 0 136 1.9125 136 4.25V38.25C136 40.5875 134.087 42.5 131.75 42.5Z" fill="#113355"/>
<path d="M28.6879 21.0375C28.6879 17.7437 31.4504 16.15 31.5566 16.0437C29.9629 13.8125 27.6254 13.4937 26.7754 13.3875C24.7566 13.175 22.7379 14.5562 21.7816 14.5562C20.7191 14.5562 19.1254 13.3875 17.4254 13.3875C15.1941 13.3875 13.1754 14.6625 12.0066 16.6812C9.66912 20.7187 11.3691 26.6687 13.6004 29.9625C14.7691 31.5562 16.0441 33.3625 17.7441 33.2562C19.4441 33.15 20.0816 32.1937 22.1004 32.1937C24.1191 32.1937 24.6504 33.2562 26.4566 33.2562C28.2629 33.2562 29.4316 31.6625 30.4941 30.0687C31.7691 28.2625 32.3004 26.4562 32.3004 26.35C32.1941 26.2437 28.6879 24.9687 28.6879 21.0375Z" fill="white"/>
<path d="M25.3929 11.2623C26.2429 10.0936 26.8804 8.60608 26.7742 7.01233C25.4992 7.11858 23.7992 7.86233 22.9492 9.03108C22.0992 9.98733 21.3554 11.5811 21.5679 13.0686C22.9492 13.1748 24.4367 12.3248 25.3929 11.2623Z" fill="white"/>
<path d="M52.9125 33.0438H50.575L49.3 29.0063H44.8375L43.6688 33.0438H41.4375L45.9 19.3375H48.6625L52.9125 33.0438ZM48.875 27.3063L47.7063 23.6938C47.6 23.375 47.3875 22.4188 46.9625 21.1438C46.8563 21.675 46.6438 22.6313 46.325 23.6938L45.1563 27.3063H48.875Z" fill="white"/>
<path d="M64.2812 28.05C64.2812 29.75 63.8563 31.025 62.9 32.0875C62.05 32.9375 61.0938 33.3625 59.8188 33.3625C58.5438 33.3625 57.5875 32.9375 57.0563 31.9813V37.1875H54.825V26.5625C54.825 25.5 54.825 24.4375 54.7188 23.2688H56.6313L56.7375 24.8625C57.4813 23.6938 58.5438 23.0563 60.0312 23.0563C61.2 23.0563 62.1563 23.4813 62.9 24.4375C63.8563 25.2875 64.2812 26.4563 64.2812 28.05ZM62.05 28.05C62.05 27.0938 61.8375 26.2438 61.4125 25.7125C60.9875 25.075 60.35 24.7563 59.5 24.7563C58.9688 24.7563 58.4375 24.9688 58.0125 25.2875C57.5875 25.6063 57.2688 26.1375 57.1625 26.6688C57.0563 26.9875 57.0563 27.2 57.0563 27.3063V29.0063C57.0563 29.75 57.2688 30.2813 57.6938 30.8125C58.1188 31.3438 58.7563 31.5563 59.3938 31.5563C60.2438 31.5563 60.8813 31.2375 61.3063 30.6C61.8375 29.9625 62.05 29.1125 62.05 28.05Z" fill="white"/>
<path d="M75.6504 28.05C75.6504 29.75 75.2254 31.025 74.2691 32.0875C73.4191 32.9375 72.4629 33.3625 71.1879 33.3625C69.9129 33.3625 68.9566 32.9375 68.4254 31.9813V37.1875H66.1941V26.5625C66.1941 25.5 66.1941 24.4375 66.0879 23.2688H68.0004L68.1066 24.8625C68.8504 23.6938 69.9129 23.0563 71.4004 23.0563C72.5691 23.0563 73.5254 23.4813 74.2691 24.4375C75.2254 25.2875 75.6504 26.4563 75.6504 28.05ZM73.4191 28.05C73.4191 27.0938 73.2066 26.2438 72.7816 25.7125C72.3566 25.075 71.7191 24.7563 70.8691 24.7563C70.3379 24.7563 69.8066 24.9688 69.3816 25.2875C68.9566 25.6063 68.6379 26.1375 68.5316 26.6688C68.4254 26.9875 68.4254 27.2 68.4254 27.3063V29.0063C68.4254 29.75 68.6379 30.2813 69.0629 30.8125C69.4879 31.3438 70.1254 31.5563 70.7629 31.5563C71.6129 31.5563 72.2504 31.2375 72.6754 30.6C73.2066 29.9625 73.4191 29.1125 73.4191 28.05Z" fill="white"/>
<path d="M88.3996 29.2185C88.3996 30.3872 87.9746 31.3435 87.2309 32.0872C86.3809 32.9372 85.1059 33.256 83.5121 33.256C82.0246 33.256 80.8559 32.9372 80.0059 32.406L80.5371 30.5997C81.4934 31.131 82.5559 31.4497 83.7246 31.4497C84.5746 31.4497 85.2121 31.2372 85.6371 30.9185C86.0621 30.4935 86.2746 30.0685 86.2746 29.431C86.2746 28.8997 86.0621 28.3685 85.7434 28.0497C85.3184 27.6247 84.6809 27.306 83.8309 26.9872C81.3871 26.1372 80.2184 24.756 80.2184 23.056C80.2184 21.8872 80.6434 21.0372 81.4934 20.2935C82.3434 19.5497 83.4059 19.231 84.8934 19.231C86.1684 19.231 87.1246 19.4435 87.9746 19.8685L87.4434 21.6747C86.6996 21.2497 85.8496 21.0372 84.7871 21.0372C84.0434 21.0372 83.4059 21.2497 82.9809 21.5685C82.6621 21.8872 82.4496 22.3122 82.4496 22.8435C82.4496 23.3747 82.6621 23.7997 83.0871 24.2247C83.4059 24.5435 84.1496 24.8622 85.1059 25.2872C86.2746 25.7122 87.1246 26.3497 87.7621 26.9872C88.0809 27.5185 88.3996 28.2622 88.3996 29.2185Z" fill="white"/>
<path d="M95.6246 24.8625H93.1809V29.6438C93.1809 30.8125 93.6059 31.45 94.4559 31.45C94.8809 31.45 95.1996 31.45 95.4121 31.3438L95.5184 33.0437C95.0934 33.2562 94.5621 33.2563 93.8184 33.2563C92.9684 33.2563 92.2246 33.0437 91.7996 32.5125C91.2684 31.9812 91.0559 31.1312 91.0559 29.8562V24.8625H89.5684V23.1625H91.0559V21.3562L93.1809 20.7188V23.1625H95.6246V24.8625Z" fill="white"/>
<path d="M106.569 28.0497C106.569 29.5372 106.144 30.8122 105.294 31.7685C104.338 32.7247 103.169 33.256 101.682 33.256C100.194 33.256 99.0254 32.7247 98.1754 31.7685C97.3254 30.8122 96.9004 29.6435 96.9004 28.156C96.9004 26.6685 97.3254 25.3935 98.2816 24.4372C99.1316 23.481 100.407 22.9497 101.894 22.9497C103.382 22.9497 104.55 23.481 105.4 24.4372C106.144 25.3935 106.569 26.5622 106.569 28.0497ZM104.232 28.156C104.232 27.1997 104.019 26.456 103.594 25.8185C103.169 25.0747 102.425 24.6497 101.575 24.6497C100.725 24.6497 99.9816 25.0747 99.5566 25.8185C99.1316 26.456 98.9192 27.306 98.9192 28.156C98.9192 29.1122 99.1316 29.856 99.5566 30.4935C99.9816 31.2372 100.725 31.6622 101.575 31.6622C102.425 31.6622 103.063 31.2372 103.594 30.4935C104.019 29.856 104.232 29.006 104.232 28.156Z" fill="white"/>
<path d="M113.69 25.075C113.478 25.075 113.265 24.9688 112.946 24.9688C112.203 24.9688 111.565 25.2875 111.14 25.8187C110.821 26.35 110.609 26.9875 110.609 27.7312V32.9375H108.378V26.1375C108.378 24.9687 108.378 24.0125 108.271 23.0563H110.184L110.29 24.9688H110.396C110.609 24.3312 111.034 23.8 111.459 23.375C111.99 23.0562 112.521 22.8438 113.053 22.8438C113.265 22.8438 113.478 22.8438 113.584 22.8438V25.075H113.69Z" fill="white"/>
<path d="M123.465 27.6247C123.465 28.0497 123.465 28.3685 123.359 28.581H116.771C116.771 29.5372 117.09 30.281 117.728 30.8122C118.259 31.2372 119.003 31.556 119.853 31.556C120.809 31.556 121.765 31.4497 122.509 31.131L122.828 32.6185C121.871 33.0435 120.809 33.256 119.534 33.256C118.046 33.256 116.771 32.831 115.921 31.8747C115.071 31.0247 114.646 29.7497 114.646 28.2622C114.646 26.7747 115.071 25.4997 115.815 24.5435C116.665 23.481 117.834 22.9497 119.321 22.9497C120.703 22.9497 121.871 23.481 122.509 24.5435C123.253 25.3935 123.465 26.456 123.465 27.6247ZM121.446 27.0935C121.446 26.456 121.34 25.9247 121.021 25.3935C120.596 24.756 120.065 24.4372 119.321 24.4372C118.578 24.4372 118.046 24.756 117.621 25.2872C117.303 25.7122 117.09 26.3497 116.984 26.9872H121.446V27.0935Z" fill="white"/>
<path d="M48.2379 10.9437C48.2379 12.1125 47.9191 13.0687 47.1754 13.7062C46.5379 14.2375 45.5816 14.5562 44.3066 14.5562C43.6691 14.5562 43.1379 14.5562 42.7129 14.45V7.86248C43.2441 7.75623 43.8816 7.75623 44.6254 7.75623C45.7941 7.75623 46.6441 7.96873 47.2816 8.49998C47.8129 9.03123 48.2379 9.88123 48.2379 10.9437ZM47.0691 10.9437C47.0691 10.2 46.8566 9.56248 46.4316 9.13748C46.0066 8.71248 45.3691 8.49998 44.6254 8.49998C44.3066 8.49998 43.9879 8.49998 43.7754 8.60623V13.6C43.8816 13.6 44.2004 13.6 44.5191 13.6C45.3691 13.6 46.0066 13.3875 46.4316 12.9625C46.8566 12.5375 47.0691 11.7937 47.0691 10.9437Z" fill="white"/>
<path d="M54.1875 12.0064C54.1875 12.7502 53.975 13.3877 53.55 13.8127C53.125 14.3439 52.4875 14.5564 51.7438 14.5564C51 14.5564 50.4688 14.3439 50.0438 13.8127C49.6188 13.3877 49.4062 12.7502 49.4062 12.0064C49.4062 11.2627 49.6188 10.6252 50.0438 10.2002C50.4688 9.66892 51.1063 9.45642 51.85 9.45642C52.5938 9.45642 53.125 9.66892 53.55 10.2002C53.975 10.6252 54.1875 11.2627 54.1875 12.0064ZM53.125 12.0064C53.125 11.5814 53.0188 11.1564 52.8063 10.8377C52.5938 10.4127 52.275 10.3064 51.85 10.3064C51.425 10.3064 51.1063 10.5189 50.8938 10.8377C50.6813 11.1564 50.575 11.5814 50.575 12.0064C50.575 12.4314 50.6813 12.8564 50.8938 13.1752C51.1063 13.6002 51.425 13.7064 51.85 13.7064C52.275 13.7064 52.5938 13.4939 52.8063 13.0689C53.0188 12.8564 53.125 12.4314 53.125 12.0064Z" fill="white"/>
<path d="M62.3688 9.5625L60.8813 14.45H59.925L59.2875 12.325C59.075 11.7938 58.9688 11.2625 58.8625 10.7313C58.7563 11.2625 58.65 11.7938 58.4375 12.325L57.8 14.45H56.8438L55.25 9.5625H56.3125L56.8438 11.9C56.95 12.4313 57.0563 12.9625 57.1625 13.4938C57.2688 13.0688 57.375 12.5375 57.5875 11.9L58.225 9.5625H59.075L59.7125 11.7938C59.925 12.325 60.0313 12.8563 60.1375 13.3875C60.2438 12.8563 60.35 12.325 60.4563 11.7938L61.0938 9.5625H62.3688Z" fill="white"/>
<path d="M67.8938 14.45H66.8313V11.6875C66.8313 10.8375 66.5125 10.4125 65.875 10.4125C65.5563 10.4125 65.3438 10.5187 65.1313 10.7312C64.9188 10.9437 64.8125 11.2625 64.8125 11.5812V14.45H63.75V10.9437C63.75 10.5187 63.75 10.0937 63.75 9.56248H64.7063V10.3062C64.8125 10.0937 65.025 9.88123 65.2375 9.66873C65.5563 9.45623 65.875 9.34998 66.1938 9.34998C66.6188 9.34998 67.0438 9.45623 67.3625 9.77498C67.7875 10.0937 67.8938 10.625 67.8938 11.3687V14.45Z" fill="white"/>
<path d="M70.8691 14.4502H69.8066V7.33142H70.8691V14.4502Z" fill="white"/>
<path d="M77.2441 12.0064C77.2441 12.7502 77.0316 13.3877 76.6066 13.8127C76.1816 14.3439 75.5441 14.5564 74.8004 14.5564C74.0566 14.5564 73.5254 14.3439 73.1004 13.8127C72.6754 13.3877 72.4629 12.7502 72.4629 12.0064C72.4629 11.2627 72.6754 10.6252 73.1004 10.2002C73.5254 9.77517 74.1629 9.45642 74.9066 9.45642C75.6504 9.45642 76.1816 9.66892 76.6066 10.2002C77.0316 10.6252 77.2441 11.2627 77.2441 12.0064ZM76.1816 12.0064C76.1816 11.5814 76.0754 11.1564 75.8629 10.8377C75.6504 10.4127 75.3316 10.3064 74.9066 10.3064C74.4816 10.3064 74.1629 10.5189 73.9504 10.8377C73.7379 11.1564 73.6316 11.5814 73.6316 12.0064C73.6316 12.4314 73.7379 12.8564 73.9504 13.1752C74.1629 13.6002 74.4816 13.7064 74.9066 13.7064C75.3316 13.7064 75.6504 13.4939 75.8629 13.0689C76.0754 12.8564 76.1816 12.4314 76.1816 12.0064Z" fill="white"/>
<path d="M82.4527 14.4502H81.4965L81.3902 13.9189C81.0715 14.3439 80.5402 14.5564 80.009 14.5564C79.584 14.5564 79.159 14.4502 78.9465 14.1314C78.734 13.8127 78.5215 13.4939 78.5215 13.1752C78.5215 12.5377 78.734 12.1127 79.2652 11.7939C79.7965 11.4752 80.434 11.3689 81.3902 11.3689V11.2627C81.3902 10.6252 81.0715 10.3064 80.434 10.3064C79.9027 10.3064 79.584 10.4127 79.159 10.6252L78.9465 9.88142C79.3715 9.56267 79.9027 9.45642 80.6465 9.45642C81.9215 9.45642 82.559 10.0939 82.559 11.4752V13.2814C82.4527 13.8127 82.4527 14.1314 82.4527 14.4502ZM81.3902 12.7502V12.0064C80.2215 12.0064 79.584 12.3252 79.584 12.9627C79.584 13.1752 79.6902 13.3877 79.7965 13.4939C79.9027 13.6002 80.1152 13.7064 80.3277 13.7064C80.5402 13.7064 80.7527 13.6002 80.9652 13.4939C81.1777 13.3877 81.284 13.1752 81.3902 12.9627C81.3902 12.9627 81.3902 12.8564 81.3902 12.7502Z" fill="white"/>
<path d="M88.6098 14.45H87.6535V13.7062C87.3348 14.3437 86.8035 14.5563 86.0598 14.5563C85.4223 14.5563 84.9973 14.3437 84.5723 13.9187C84.1473 13.4937 84.041 12.8562 84.041 12.1125C84.041 11.3687 84.2535 10.7313 84.6785 10.2C85.1035 9.775 85.6348 9.5625 86.166 9.5625C86.8035 9.5625 87.2285 9.775 87.5473 10.2V7.4375H88.6098V13.175C88.6098 13.6 88.6098 14.025 88.6098 14.45ZM87.5473 12.4313V11.5812C87.5473 11.475 87.5473 11.3688 87.5473 11.2625C87.441 11.05 87.3348 10.8375 87.1223 10.625C86.9098 10.4125 86.6973 10.4125 86.3785 10.4125C85.9535 10.4125 85.6348 10.625 85.4223 10.9437C85.2098 11.2625 85.1035 11.6875 85.1035 12.2188C85.1035 12.75 85.2098 13.0688 85.4223 13.3875C85.6348 13.7063 85.9535 13.9187 86.3785 13.9187C86.6973 13.9187 87.016 13.8125 87.2285 13.4938C87.441 13.0688 87.5473 12.75 87.5473 12.4313Z" fill="white"/>
<path d="M97.8535 12.0064C97.8535 12.7502 97.641 13.3877 97.216 13.8127C96.791 14.3439 96.1535 14.5564 95.4098 14.5564C94.666 14.5564 94.1348 14.3439 93.7098 13.8127C93.2848 13.3877 93.0723 12.7502 93.0723 12.0064C93.0723 11.2627 93.2848 10.6252 93.7098 10.2002C94.1348 9.66892 94.7723 9.45642 95.516 9.45642C96.2598 9.45642 96.791 9.66892 97.216 10.2002C97.641 10.6252 97.8535 11.2627 97.8535 12.0064ZM96.6848 12.0064C96.6848 11.5814 96.5785 11.1564 96.366 10.8377C96.1535 10.4127 95.8348 10.3064 95.4098 10.3064C94.9848 10.3064 94.666 10.5189 94.4535 10.8377C94.241 11.1564 94.1348 11.5814 94.1348 12.0064C94.1348 12.4314 94.241 12.8564 94.4535 13.1752C94.666 13.6002 94.9848 13.7064 95.4098 13.7064C95.8348 13.7064 96.1535 13.4939 96.366 13.0689C96.5785 12.8564 96.6848 12.4314 96.6848 12.0064Z" fill="white"/>
<path d="M103.7 14.45H102.638V11.6875C102.638 10.8375 102.319 10.4125 101.682 10.4125C101.363 10.4125 101.15 10.5187 100.938 10.7312C100.725 10.9437 100.619 11.2625 100.619 11.5812V14.45H99.5566V10.9437C99.5566 10.5187 99.5566 10.0937 99.5566 9.56248H100.513V10.3062C100.619 10.0937 100.832 9.88123 101.044 9.66873C101.363 9.45623 101.682 9.34998 102 9.34998C102.425 9.34998 102.85 9.45623 103.169 9.77498C103.594 10.0937 103.7 10.625 103.7 11.3687V14.45Z" fill="white"/>
<path d="M110.925 10.4127H109.757V12.7502C109.757 13.3877 109.969 13.6002 110.394 13.6002C110.607 13.6002 110.713 13.6002 110.925 13.6002V14.4502C110.713 14.5564 110.394 14.5564 110.075 14.5564C109.65 14.5564 109.332 14.4502 109.119 14.1314C108.907 13.9189 108.8 13.3877 108.8 12.8564V10.4127H108.057V9.56267H108.8V8.71267L109.863 8.39392V9.56267H111.032V10.4127H110.925Z" fill="white"/>
<path d="M116.665 14.4502H115.603V11.6877C115.603 10.8377 115.284 10.4127 114.646 10.4127C114.115 10.4127 113.796 10.6252 113.584 11.1564C113.584 11.2627 113.584 11.3689 113.584 11.5814V14.4502H112.521V7.33142H113.584V10.3064C113.903 9.77517 114.434 9.45642 115.071 9.45642C115.496 9.45642 115.921 9.56267 116.134 9.88142C116.453 10.2002 116.665 10.8377 116.665 11.4752V14.4502Z" fill="white"/>
<path d="M122.506 11.7938C122.506 12.0063 122.506 12.1125 122.506 12.325H119.318C119.318 12.8563 119.531 13.175 119.743 13.3875C120.062 13.6 120.381 13.7062 120.806 13.7062C121.337 13.7062 121.762 13.6 122.081 13.4938L122.293 14.2375C121.868 14.45 121.337 14.5563 120.7 14.5563C119.956 14.5563 119.318 14.3437 118.893 13.9187C118.468 13.4937 118.256 12.8562 118.256 12.1125C118.256 11.3687 118.468 10.7313 118.893 10.3063C119.318 9.775 119.85 9.5625 120.593 9.5625C121.337 9.5625 121.868 9.775 122.187 10.3063C122.4 10.625 122.506 11.1563 122.506 11.7938ZM121.55 11.475C121.55 11.1562 121.443 10.8375 121.337 10.625C121.125 10.3062 120.912 10.2 120.487 10.2C120.168 10.2 119.85 10.3062 119.637 10.625C119.425 10.8375 119.318 11.1562 119.318 11.475H121.55Z" fill="white"/>
</svg>
