<svg width="144" height="23" viewBox="0 0 144 23" fill="none" xmlns="http://www.w3.org/2000/svg">
<g clip-path="url(#clip0_269_374)">
<path d="M11.5 0L14.8798 7.84815L23.3882 8.63729L16.9686 14.2768L18.8473 22.6127L11.5 18.25L4.15268 22.6127L6.03143 14.2768L-0.388206 8.63729L8.12024 7.84815L11.5 0Z" fill="url(#paint0_linear_269_374)"/>
<path d="M41.5 0L44.8798 7.84815L53.3882 8.63729L46.9686 14.2768L48.8473 22.6127L41.5 18.25L34.1527 22.6127L36.0314 14.2768L29.6118 8.63729L38.1202 7.84815L41.5 0Z" fill="url(#paint1_linear_269_374)"/>
<path d="M71.5 0L74.8798 7.84815L83.3882 8.63729L76.9686 14.2768L78.8473 22.6127L71.5 18.25L64.1527 22.6127L66.0314 14.2768L59.6118 8.63729L68.1202 7.84815L71.5 0Z" fill="url(#paint2_linear_269_374)"/>
<path d="M101.5 0L104.88 7.84815L113.388 8.63729L106.969 14.2768L108.847 22.6127L101.5 18.25L94.1527 22.6127L96.0314 14.2768L89.6118 8.63729L98.1202 7.84815L101.5 0Z" fill="url(#paint3_linear_269_374)"/>
<path d="M131.5 0L134.88 7.84815L143.388 8.63729L136.969 14.2768L138.847 22.6127L131.5 18.25L124.153 22.6127L126.031 14.2768L119.612 8.63729L128.12 7.84815L131.5 0Z" fill="url(#paint4_linear_269_374)"/>
</g>
<defs>
<linearGradient id="paint0_linear_269_374" x1="11.5" y1="0" x2="11.5" y2="25" gradientUnits="userSpaceOnUse">
<stop stop-color="#38A2D6"/>
<stop offset="1" stop-color="#107BE0"/>
</linearGradient>
<linearGradient id="paint1_linear_269_374" x1="41.5" y1="0" x2="41.5" y2="25" gradientUnits="userSpaceOnUse">
<stop stop-color="#38A2D6"/>
<stop offset="1" stop-color="#107BE0"/>
</linearGradient>
<linearGradient id="paint2_linear_269_374" x1="71.5" y1="0" x2="71.5" y2="25" gradientUnits="userSpaceOnUse">
<stop stop-color="#38A2D6"/>
<stop offset="1" stop-color="#107BE0"/>
</linearGradient>
<linearGradient id="paint3_linear_269_374" x1="101.5" y1="0" x2="101.5" y2="25" gradientUnits="userSpaceOnUse">
<stop stop-color="#38A2D6"/>
<stop offset="1" stop-color="#107BE0"/>
</linearGradient>
<linearGradient id="paint4_linear_269_374" x1="131.5" y1="0" x2="131.5" y2="25" gradientUnits="userSpaceOnUse">
<stop stop-color="#38A2D6"/>
<stop offset="1" stop-color="#107BE0"/>
</linearGradient>
<clipPath id="clip0_269_374">
<rect width="144" height="23" fill="white"/>
</clipPath>
</defs>
</svg>
