<svg width="49" height="58" viewBox="0 0 49 58" fill="none" xmlns="http://www.w3.org/2000/svg">
<path d="M24.2852 47.5684V56.9999" stroke="white" stroke-width="2"/>
<path d="M4.53711 16.1474V16.1474C4.53711 12.2407 7.70411 9.07373 11.6108 9.07373H12.7897C16.6964 9.07373 19.8634 12.2407 19.8634 16.1474V16.1474" stroke="white" stroke-width="2"/>
<path d="M29.2949 16.1474V16.1474C29.2949 12.2407 32.4619 9.07373 36.3686 9.07373H37.5476C41.4542 9.07373 44.6212 12.2407 44.6212 16.1474V16.1474" stroke="white" stroke-width="2"/>
<path d="M24.2111 1.00004C24.2354 1.00001 24.2598 1 24.2842 1C24.3096 1 24.3349 1.00012 24.3601 1.00036C38.3615 1.0453 45.5653 5.33415 47.4222 7.48421V26.9368C47.4222 51.6947 24.3601 56.7053 24.3601 56.7053C24.3601 56.7053 1 51.4 1 26.9368V7.48421C2.85687 5.33415 10.0607 1.0453 24.0621 1.00036C24.0873 1.00012 24.1126 1 24.138 1C24.1624 1 24.1868 1.00001 24.2111 1.00004Z" stroke="white" stroke-width="2"/>
<path d="M1 29.2947V29.2947C1 33.8525 4.69483 37.5473 9.25263 37.5473H11.6105C15.8428 37.5473 19.2737 34.1164 19.2737 29.8842V29.8842" stroke="white" stroke-width="2"/>
<path d="M28.7051 29.2947V29.2947C28.7051 33.8525 32.3999 37.5473 36.9577 37.5473H39.3156C43.5478 37.5473 46.9788 34.1164 46.9788 29.8842V29.8842" stroke="white" stroke-width="2"/>
<path d="M19.2734 29.2947V32.8315C19.2734 35.436 21.3848 37.5473 23.9892 37.5473V37.5473C26.5937 37.5473 28.705 35.436 28.705 32.8315V29.8842" stroke="white" stroke-width="2"/>
<path d="M23.9889 38.5579L20.7379 42.2885C19.4464 43.7705 17.5768 44.6211 15.611 44.6211V44.6211C13.4521 44.6211 11.4214 43.596 10.1394 41.8589L6.30469 36.6632" stroke="white" stroke-width="2"/>
<path d="M23.9896 38.3512L27.1576 42.1832C28.434 43.7272 30.3327 44.621 32.3359 44.621V44.621C34.3831 44.621 36.3185 43.6877 37.5932 42.0859L41.6738 36.9579" stroke="white" stroke-width="2"/>
<path d="M41.0844 20.7474C41.0844 20.7474 38.4452 23.4 35.1897 23.4C31.9341 23.4 29.2949 20.7474 29.2949 20.7474C29.2949 20.7474 31.9341 18.0947 35.1897 18.0947C38.4452 18.0947 41.0844 20.7474 41.0844 20.7474Z" fill="white"/>
<path d="M19.8637 20.7474C19.8637 20.7474 17.2245 23.4 13.969 23.4C10.7134 23.4 8.07422 20.7474 8.07422 20.7474C8.07422 20.7474 10.7134 18.0947 13.969 18.0947C17.2245 18.0947 19.8637 20.7474 19.8637 20.7474Z" fill="white"/>
</svg>
