<svg width="86" height="86" viewBox="0 0 86 86" fill="none" xmlns="http://www.w3.org/2000/svg">
    <rect width="86" height="86" rx="6" fill="white"/>
    <path d="M47.5468 44.414C46.5617 44.4272 47.732 44.9204 49.0184 45.1189C49.3751 44.8406 49.6956 44.5611 49.983 44.2881C49.1832 44.4839 48.3683 44.4885 47.5468 44.414Z" fill="#BD093D"/>
    <path d="M52.8354 43.0959C53.4241 42.2856 53.8514 41.3994 54.0024 40.4829C53.8699 41.1357 53.5171 41.6994 53.1822 42.2954C51.3406 43.4552 53.0081 41.6071 53.1808 40.9036C51.2015 43.3979 52.9079 42.399 52.8354 43.0959Z" fill="#BD093D"/>
    <path d="M54.7857 38.0172C54.9057 36.243 54.4369 36.8047 54.2793 37.4805C54.4626 37.5768 54.6083 38.732 54.7857 38.0172Z" fill="#BD093D"/>
    <path d="M43.8105 13.7671C44.3367 13.8607 44.9472 13.9332 44.8596 14.0592C45.4371 13.9319 45.567 13.8172 43.8105 13.7671Z" fill="#BD093D"/>
    <path d="M44.8601 14.0591L44.4902 14.1362L44.8351 14.1046L44.8601 14.0591Z" fill="#BD093D"/>
    <path d="M61.2574 38.6892C61.3167 40.2821 60.7925 41.0562 60.3185 42.425L59.466 42.8489C58.769 44.2032 59.5352 43.7087 59.0361 44.7854C57.9468 45.7527 55.7354 47.8111 55.0273 47.9997C54.5097 47.9885 55.3774 47.3892 55.4908 47.1551C54.0343 48.1546 54.3218 48.6557 52.0939 49.2643L52.0292 49.1186C46.5369 51.7032 38.9071 46.5821 39.0073 39.5957C38.9493 40.0388 38.8405 39.9281 38.7191 40.1061C38.4356 36.512 40.3794 32.9021 43.6576 31.4259C46.864 29.8395 50.6229 30.4896 52.918 32.6318C51.6574 30.9795 49.146 29.2276 46.1717 29.3898C43.2567 29.4373 40.529 31.2894 39.6191 33.301C38.1264 34.2406 37.9523 36.9248 37.3022 37.4166C36.426 43.8518 38.9486 46.6309 43.2165 49.9019C43.8864 50.3542 43.4051 50.4234 43.4947 50.7676C42.0772 50.1043 40.7796 49.1021 39.7114 47.8751C40.2785 48.7039 40.8897 49.5096 41.6802 50.1426C40.3424 49.6909 38.5563 46.9032 38.0361 46.7898C40.3405 50.916 47.3842 54.0261 51.0745 52.4826C49.3668 52.5459 47.1983 52.5175 45.2809 51.8087C44.4732 51.394 43.3794 50.5362 43.5752 50.376C48.6099 52.2557 53.8095 51.7988 58.1651 48.3076C59.2741 47.4439 60.4846 45.9755 60.8347 45.9557C60.3079 46.7483 60.9251 46.3368 60.5202 47.0364C61.6227 45.2555 60.0396 46.3111 61.6609 43.9612L62.2596 44.7854C62.0354 43.3059 64.0958 41.5111 63.8862 39.1731C64.3589 38.4584 64.413 39.9432 63.9119 41.5876C64.6075 39.7632 64.0958 39.4698 64.2739 37.9639C64.4657 38.4703 64.7209 39.0076 64.8508 39.5423C64.3972 37.7786 65.3143 36.5733 65.5424 35.5481C65.3169 35.4492 64.8429 36.3274 64.7334 34.2452C64.7499 33.3406 64.986 33.7711 65.0763 33.5483C64.8996 33.4461 64.4334 32.7524 64.1506 31.4226C64.3543 31.1094 64.6991 32.2329 64.9787 32.2784C64.7987 31.2215 64.4895 30.4151 64.4763 29.6034C63.6587 27.8957 64.1868 29.8316 63.5249 28.8703C62.6545 26.1577 64.2462 28.2406 64.3543 27.0089C65.6717 28.9177 66.4227 31.8782 66.7688 33.1039C66.5051 31.6092 66.0798 30.1606 65.5596 28.7595C65.9611 28.9289 64.9141 25.685 66.0811 27.8331C64.8356 23.254 60.755 18.9748 57 16.9678C57.4583 17.3878 58.0378 17.9153 57.8308 17.9984C55.9622 16.8874 56.2906 16.7997 56.0229 16.3302C54.5031 15.7111 54.4016 16.381 53.3961 16.3315C50.5279 14.8098 49.9754 14.9713 47.3361 14.0192L47.4561 14.581C45.5565 13.948 45.2427 14.8197 43.1901 14.5823C43.0655 14.4854 43.8482 14.2289 44.493 14.1359C42.6561 14.3786 42.7418 13.7733 40.9444 14.2025C41.3868 13.892 41.8563 13.6856 42.3284 13.4219C40.831 13.5129 38.7521 14.2935 39.3936 13.5828C36.9508 14.6733 32.6117 16.2036 30.1767 18.4869L30.1002 17.9753C28.9847 19.3144 25.235 21.9748 24.9363 23.7109L24.6376 23.7801C24.0581 24.7632 23.6816 25.8768 23.2214 26.8876C22.4625 28.1819 22.1084 27.3861 22.2165 27.5892C20.7231 30.6168 19.9801 33.1606 19.3398 35.2481C19.7961 35.9305 19.3511 39.3571 19.5231 42.0993C18.7741 55.6448 29.0295 68.7953 40.2396 71.8309C41.8827 72.4197 44.3255 72.3986 46.4038 72.4566C43.9523 71.7551 43.6358 72.0854 41.2464 71.2527C39.5235 70.4404 39.1464 69.514 37.9253 68.4544L38.4086 69.3083C36.0152 68.461 37.0167 68.2599 35.069 67.6434L35.5853 66.9703C34.8093 66.9109 33.5301 65.6634 33.1807 64.9705L32.3314 65.0041C31.3121 63.7474 30.7682 62.8395 30.8084 62.136L30.5341 62.6252C30.2235 62.0918 26.7818 57.9056 28.5673 58.8801C28.2357 58.5782 27.7946 58.3876 27.3165 57.5179L27.6798 57.1032C26.822 55.9975 26.0987 54.5806 26.1541 54.1085C26.6124 54.727 26.9302 54.843 27.2453 54.9492C25.0754 49.5663 24.9535 54.6531 23.3111 49.47L23.6579 49.4423C23.3922 49.0395 23.2293 48.605 23.0157 48.1771L23.1673 46.6705C21.606 44.8665 22.7308 38.9924 22.957 35.7716C23.1119 34.4621 24.2605 33.0676 25.1328 30.8806L24.6014 30.7896C25.6181 29.0173 30.4049 23.6694 32.6229 23.9437C33.6969 22.5946 32.4093 23.9384 32.1989 23.5995C34.5587 21.1579 35.3005 21.8746 36.8928 21.4348C38.609 20.4162 35.4191 21.8331 36.2328 21.0465C39.2018 20.2889 38.3361 19.323 42.2084 18.9386C42.6172 19.1707 41.2609 19.2973 40.9207 19.5986C43.3932 18.388 48.7464 18.6643 52.2251 20.2698C56.2583 22.1562 60.7925 27.7296 60.9719 32.9733L61.1756 33.0281C61.0728 35.1129 61.4947 37.5241 60.7622 39.7382L61.2574 38.6892Z" fill="#BD093D"/>
    <path d="M36.7993 45.7661L36.6602 46.4564C37.3083 47.3367 37.8226 48.2901 38.6487 48.9758C38.054 47.816 37.6129 47.3367 36.7993 45.7661Z" fill="#BD093D"/>
    <path d="M38.3235 45.7067C37.9807 45.3269 37.7789 44.8706 37.5508 44.417C37.7684 45.2155 38.2141 45.9018 38.6275 46.6007L38.3235 45.7067Z" fill="#BD093D"/>
    <path d="M65.4128 39.8191L65.2684 40.183C65.0033 42.0674 64.429 43.9321 63.5508 45.6615C64.5213 43.8371 65.147 41.8413 65.4128 39.8191Z" fill="#BD093D"/>
    <path d="M44.0089 13.2941C44.6742 13.0508 45.6454 13.1602 46.3536 13C45.4318 13.0771 44.5146 13.1233 43.6094 13.2387L44.0089 13.2941Z" fill="#BD093D"/>
    <path d="M20.6232 25.731C20.7768 27.1512 19.5551 27.703 20.8935 26.7655C21.6122 25.1474 20.614 26.3191 20.6232 25.731Z" fill="#BD093D"/>
    <path d="M19.0448 32.307C19.3541 31.3595 19.4094 30.7912 19.5275 30.2419C18.6749 31.3325 19.1345 31.5652 19.0448 32.307Z" fill="#BD093D"/>
</svg>