<svg width="86" height="86" viewBox="0 0 86 86" fill="none" xmlns="http://www.w3.org/2000/svg">
    <rect width="86" height="86" rx="6" fill="#1CAFD7"/>
    <path d="M67.8598 42.9308C67.8598 29.1621 56.6981 18 42.9295 18C29.1671 18 18.0098 29.1527 18 42.9132V62.2055C18.0074 65.3299 20.5414 67.8592 23.6678 67.8592H42.9396C56.7036 67.8538 67.8598 56.6958 67.8598 42.9308Z" fill="#233366"/>
    <path fill-rule="evenodd" clip-rule="evenodd" d="M44.0691 41.8049H32.3744C25.9181 41.8049 20.6797 47.0434 20.6797 53.4996C20.6797 59.9559 25.9181 65.1943 32.3744 65.1943C38.8307 65.1943 44.0691 59.9559 44.0691 53.4996V41.8049ZM26.1498 53.4996C26.1498 50.0644 28.9392 47.275 32.3745 47.275H38.5991V53.4996C38.5991 56.9348 35.8097 59.7243 32.3745 59.7243C28.9392 59.7243 26.1498 56.9348 26.1498 53.4996Z" fill="#46547E"/>
    <path fill-rule="evenodd" clip-rule="evenodd" d="M38.5501 47.292H50.2448C56.7011 47.292 61.9395 42.0535 61.9395 35.5973C61.9395 29.141 56.7011 23.9026 50.2448 23.9026C43.7885 23.9026 38.5501 29.141 38.5501 35.5973V47.292ZM50.2447 41.822H44.0201V35.5973C44.0201 32.1621 46.8095 29.3726 50.2447 29.3726C53.6799 29.3726 56.4694 32.1621 56.4694 35.5973C56.4694 39.0325 53.6799 41.822 50.2447 41.822Z" fill="#46547E"/>
    <path d="M44.0691 41.812V53.4873C44.0691 59.9487 38.8303 65.1877 32.3686 65.1877C31.3883 65.1877 30.6914 65.077 29.7839 64.8398C28.4607 64.4935 27.3794 63.4086 27.3789 62.1467C27.3789 60.6214 28.4861 59.5119 30.1411 59.5119C30.9288 59.5119 31.2147 59.6631 32.3686 59.6631C35.7753 59.6631 38.5386 56.9037 38.5446 53.4971V48.1307C38.5446 47.6498 38.1538 47.2602 37.6722 47.2602L33.615 47.2594C32.1034 47.2594 30.8821 46.0537 30.8821 44.538C30.8813 43.0128 32.1159 41.812 33.6439 41.812" fill="white"/>
    <path d="M38.55 47.2859V35.6106C38.55 29.1492 43.7888 23.9102 50.2505 23.9102C51.2308 23.9102 51.9277 24.0209 52.8352 24.2581C54.1584 24.6044 55.2398 25.6893 55.2402 26.9512C55.2402 28.4765 54.1331 29.586 52.478 29.586C51.6903 29.586 51.4045 29.4348 50.2505 29.4348C46.8438 29.4348 44.0805 32.1942 44.0745 35.6008V40.9672C44.0745 41.4481 44.4653 41.8377 44.9469 41.8377L49.0041 41.8385C50.5157 41.8385 51.7371 43.0442 51.7371 44.5599C51.7379 46.0851 50.5032 47.2859 48.9753 47.2859" fill="white"/>
</svg>