<svg width="35" height="47" viewBox="0 0 35 47" version="1.1" xmlns="http://www.w3.org/2000/svg" xmlns:xlink="http://www.w3.org/1999/xlink">
<title>3F</title>
<desc>Created using Figma</desc>
<g id="Canvas" transform="translate(-407 -2360)">
<g id="3F">
<g id="3F">
<use xlink:href="#path0_fill" transform="translate(407.947 2360.97)" fill="#FFFFFF"/>
</g>
</g>
</g>
<defs>
<path id="path0_fill" fill-rule="evenodd" d="M 15.469 32.68L 15.469 34.46C 15.469 35.29 16.14 35.96 16.969 35.96C 17.797 35.96 18.469 35.29 18.469 34.46L 18.469 32.67C 19.388 32.14 20.016 31.16 20.016 30.03C 20.016 28.35 18.649 26.98 16.969 26.98C 15.288 26.98 13.921 28.35 13.921 30.03C 13.921 31.14 14.521 32.14 15.469 32.68ZM 30.907 39.1899C 30.907 39.5499 30.823 42.7599 27.909 42.8799C 23.56 43.0499 6.271 42.8999 6.056 42.8899C 5.789 42.8899 3.447 42.7599 3 38.5699L 3 21.1899L 30.907 21.1899L 30.907 39.1899ZM 16.909 3C 25.334 3 25.817 9.99 25.844 10.74L 25.844 18.19L 7.975 18.19L 7.974 11.15C 7.983 10.81 8.273 3 16.909 3ZM 32.407 18.19L 28.844 18.19L 28.843 10.7C 28.749 7 26.133 0 16.909 0C 7.684 0 5.069 7.24 4.975 11.11L 4.975 18.19L 1.5 18.19C 0.672 18.19 0 18.86 0 19.69L 0 38.65C 0 38.7 0.003 38.75 0.008 38.8C 0.587 44.57 4.282 46 6.068 45.89C 6.523 45.9 13.497 45.96 19.651 45.96C 23.17 45.96 26.422 45.94 28.031 45.88C 32.678 45.69 33.907 41.42 33.907 39.19L 33.907 19.69C 33.907 18.86 33.235 18.19 32.407 18.19Z"/>
</defs>
</svg>
